<svg id="svg" version="1.1" xmlns="http://www.w3.org/2000/svg" xmlns:xlink="http://www.w3.org/1999/xlink" width="400" height="400" viewBox="0, 0, 400,400"><g id="svgg"><path id="path0" d="M279.621 153.666 C 278.733 154.493,278.724 154.555,279.422 155.066 C 280.423 155.798,280.465 155.784,282.000 154.200 L 283.357 152.800 281.954 152.800 C 281.068 152.800,280.208 153.119,279.621 153.666 M305.200 154.604 C 305.200 155.913,304.980 156.596,304.400 157.093 C 303.395 157.953,303.396 157.962,304.600 159.362 L 305.600 160.524 305.600 156.662 C 305.600 154.538,305.510 152.800,305.400 152.800 C 305.290 152.800,305.200 153.612,305.200 154.604 M160.365 153.843 C 158.711 155.836,154.397 165.416,152.550 171.200 C 152.234 172.190,151.800 173.313,151.587 173.695 C 151.374 174.077,151.200 174.716,151.200 175.115 C 151.200 175.514,151.051 176.011,150.870 176.220 C 150.688 176.429,150.310 177.410,150.031 178.400 C 149.751 179.390,149.360 180.513,149.161 180.895 C 148.962 181.277,148.800 181.864,148.800 182.200 C 148.800 182.536,148.638 183.123,148.439 183.505 C 148.240 183.887,147.856 185.010,147.585 186.000 C 146.749 189.052,146.302 190.567,145.990 191.400 C 145.826 191.840,145.466 193.010,145.192 194.000 C 144.917 194.990,144.511 196.430,144.289 197.200 C 144.068 197.970,143.828 198.825,143.756 199.100 C 143.684 199.375,143.293 199.600,142.888 199.600 C 142.482 199.600,141.405 199.960,140.494 200.400 C 139.584 200.840,138.648 201.200,138.414 201.200 C 138.180 201.200,137.677 201.358,137.295 201.551 C 135.502 202.456,133.427 202.800,129.752 202.800 C 127.108 202.800,125.581 202.969,125.230 203.300 C 124.802 203.703,124.734 203.684,124.876 203.200 C 124.973 202.870,125.445 202.422,125.926 202.205 C 126.407 201.988,126.800 201.673,126.800 201.505 C 126.800 201.337,127.160 201.200,127.600 201.200 C 128.222 201.200,128.400 200.933,128.400 200.000 C 128.400 199.340,128.220 198.800,128.000 198.800 C 127.780 198.800,127.600 198.517,127.600 198.171 C 127.600 195.337,123.865 196.690,120.800 200.635 C 119.840 201.870,117.600 206.450,117.600 207.176 C 117.600 207.541,117.411 208.029,117.180 208.260 C 116.675 208.765,116.579 216.002,117.073 216.353 C 117.263 216.489,117.857 217.439,118.391 218.465 C 119.644 220.872,123.764 222.952,124.600 221.600 C 124.736 221.380,125.160 221.200,125.542 221.200 C 127.940 221.200,130.800 216.123,130.800 211.868 L 130.800 208.561 132.128 208.080 C 132.859 207.816,134.031 207.600,134.734 207.600 C 135.436 207.600,136.323 207.438,136.705 207.239 C 137.087 207.040,138.210 206.648,139.200 206.367 C 140.190 206.086,141.218 205.692,141.484 205.493 C 142.105 205.026,142.607 206.846,142.204 208.106 C 141.814 209.326,141.277 212.517,139.966 221.400 C 139.287 225.995,139.085 230.800,139.571 230.800 C 139.807 230.800,140.000 231.138,140.000 231.551 C 140.000 231.964,140.273 232.529,140.608 232.806 C 141.403 233.466,142.800 232.291,142.800 230.962 C 142.800 230.459,142.980 229.936,143.200 229.800 C 143.420 229.664,143.600 229.124,143.600 228.600 C 143.600 228.076,143.780 227.536,144.000 227.400 C 144.220 227.264,144.400 226.724,144.400 226.200 C 144.400 225.676,144.580 225.136,144.800 225.000 C 145.020 224.864,145.200 224.313,145.200 223.776 C 145.200 223.239,145.380 222.800,145.600 222.800 C 145.820 222.800,146.000 222.451,146.000 222.024 C 146.000 221.597,146.180 221.136,146.400 221.000 C 146.620 220.864,146.800 220.313,146.800 219.776 C 146.800 219.239,146.980 218.800,147.200 218.800 C 147.420 218.800,147.600 218.535,147.600 218.212 C 147.600 217.588,148.799 215.298,150.047 213.538 C 150.461 212.954,150.800 212.359,150.800 212.215 C 150.800 211.948,152.593 209.584,154.400 207.468 C 156.342 205.193,161.041 202.000,162.446 202.000 C 163.641 202.000,163.126 207.149,161.656 209.895 C 161.182 210.781,157.834 214.083,156.400 215.080 C 153.006 217.439,149.600 222.033,149.600 224.252 C 149.600 226.115,151.140 228.362,152.431 228.383 C 154.799 228.422,160.681 222.818,162.820 218.486 C 163.709 216.685,166.638 213.200,167.263 213.200 C 167.426 213.200,168.360 212.660,169.338 212.000 C 170.316 211.340,171.222 210.800,171.351 210.800 C 171.480 210.800,172.762 210.080,174.200 209.200 C 177.582 207.130,178.177 207.114,177.811 209.100 C 176.548 215.945,180.205 222.800,185.120 222.800 C 189.479 222.800,197.203 217.996,205.062 210.397 C 210.255 205.375,210.000 205.305,210.000 211.764 L 210.000 217.129 208.045 218.800 C 201.444 224.446,199.290 229.214,201.415 233.479 C 204.236 239.141,210.285 235.917,212.822 227.400 C 213.084 226.520,213.456 225.487,213.649 225.105 C 213.842 224.723,214.000 223.806,214.000 223.067 C 214.000 221.288,215.061 219.233,216.203 218.799 C 216.709 218.607,217.245 218.251,217.395 218.008 C 217.647 217.601,219.884 216.004,221.672 214.956 C 222.089 214.711,222.828 214.160,223.315 213.731 C 223.802 213.302,224.650 212.645,225.200 212.271 C 227.146 210.948,229.019 209.613,230.600 208.422 C 231.480 207.759,232.560 207.050,233.000 206.846 C 233.440 206.642,234.509 205.741,235.375 204.844 L 236.951 203.212 236.075 202.280 C 235.594 201.768,235.200 201.171,235.200 200.954 C 235.200 199.599,234.195 199.711,231.889 201.323 C 230.571 202.246,229.086 203.270,228.591 203.600 C 224.912 206.052,221.950 208.178,221.562 208.646 C 221.309 208.951,220.946 209.200,220.754 209.200 C 220.447 209.200,217.876 211.013,215.895 212.626 C 214.513 213.752,214.080 213.343,213.862 210.700 C 213.749 209.325,213.450 207.120,213.198 205.800 C 211.697 197.938,213.713 191.600,217.714 191.600 C 218.065 191.600,218.464 191.420,218.600 191.200 C 218.736 190.980,219.472 190.800,220.236 190.800 C 222.373 190.800,222.462 189.126,220.455 186.700 C 218.510 184.349,211.666 187.990,209.743 192.400 C 209.407 193.170,208.968 194.113,208.766 194.495 C 208.565 194.877,208.400 196.332,208.400 197.729 L 208.400 200.268 204.069 204.434 C 198.792 209.510,194.586 213.200,194.077 213.200 C 193.868 213.200,193.481 213.462,193.215 213.782 C 192.681 214.426,187.828 216.808,185.542 217.549 C 183.916 218.076,182.000 217.525,182.000 216.530 C 182.000 216.233,181.798 215.665,181.551 215.270 C 181.054 214.474,182.013 212.069,182.921 211.836 C 188.615 210.375,192.929 206.700,195.522 201.104 C 196.615 198.746,196.640 197.141,195.600 196.200 C 195.160 195.802,194.800 195.262,194.800 195.000 C 194.800 191.524,188.747 192.582,184.608 196.782 C 182.640 198.779,181.257 199.683,176.808 201.880 C 173.834 203.350,170.648 205.058,169.728 205.676 C 167.470 207.194,167.287 207.119,167.512 204.774 C 167.628 203.563,167.503 202.315,167.200 201.674 C 166.921 201.083,166.501 200.150,166.266 199.600 C 164.581 195.658,161.760 195.565,156.200 199.265 C 154.536 200.372,148.734 206.274,147.481 208.133 C 147.086 208.720,146.591 209.200,146.381 209.200 C 145.874 209.200,145.890 207.315,146.400 207.000 C 146.620 206.864,146.800 206.144,146.800 205.400 C 146.800 204.656,146.980 203.936,147.200 203.800 C 147.420 203.664,147.600 202.944,147.600 202.200 C 147.600 201.456,147.780 200.736,148.000 200.600 C 148.220 200.464,148.400 199.834,148.400 199.200 C 148.400 198.566,148.580 197.936,148.800 197.800 C 149.020 197.664,149.200 197.124,149.200 196.600 C 149.200 196.076,149.380 195.536,149.600 195.400 C 149.820 195.264,150.000 194.713,150.000 194.176 C 150.000 193.639,150.180 193.200,150.400 193.200 C 150.620 193.200,150.800 192.858,150.800 192.441 C 150.800 192.023,151.340 190.655,152.000 189.400 C 152.660 188.145,153.200 186.867,153.200 186.559 C 153.200 186.252,153.380 186.000,153.600 186.000 C 153.820 186.000,154.000 185.640,154.000 185.200 C 154.000 184.760,154.180 184.400,154.400 184.400 C 154.620 184.400,154.800 184.128,154.800 183.795 C 154.800 183.462,155.008 182.787,155.262 182.295 C 156.233 180.418,156.400 179.993,156.400 179.405 C 156.400 179.072,156.580 178.800,156.800 178.800 C 157.020 178.800,157.200 178.361,157.200 177.824 C 157.200 177.287,157.380 176.736,157.600 176.600 C 157.820 176.464,158.000 176.003,158.000 175.576 C 158.000 175.149,158.180 174.800,158.400 174.800 C 158.620 174.800,158.800 174.361,158.800 173.824 C 158.800 173.287,158.980 172.736,159.200 172.600 C 159.420 172.464,159.600 172.003,159.600 171.576 C 159.600 171.149,159.780 170.800,160.000 170.800 C 160.220 170.800,160.400 170.361,160.400 169.824 C 160.400 169.287,160.580 168.736,160.800 168.600 C 161.020 168.464,161.200 167.924,161.200 167.400 C 161.200 166.876,161.380 166.336,161.600 166.200 C 161.820 166.064,162.000 165.524,162.000 165.000 C 162.000 164.476,162.180 163.936,162.400 163.800 C 162.620 163.664,162.800 163.124,162.800 162.600 C 162.800 162.076,162.980 161.536,163.200 161.400 C 163.420 161.264,163.600 160.634,163.600 160.000 C 163.600 159.366,163.780 158.736,164.000 158.600 C 164.630 158.210,164.467 156.153,163.758 155.565 C 163.405 155.273,162.960 154.620,162.768 154.116 C 162.363 153.051,161.137 152.911,160.365 153.843 M296.000 153.971 C 296.000 154.542,297.188 155.600,297.829 155.600 C 298.666 155.600,298.525 154.495,297.626 154.014 C 296.666 153.500,296.000 153.483,296.000 153.971 M274.639 156.065 C 274.063 156.888,274.109 157.600,274.737 157.600 C 274.897 157.600,275.346 157.060,275.736 156.400 C 276.609 154.922,275.646 154.628,274.639 156.065 M290.800 158.914 C 290.800 160.258,293.261 163.600,294.251 163.600 C 295.363 163.600,295.045 162.851,292.973 160.589 C 291.548 159.032,290.800 158.456,290.800 158.914 M284.446 159.106 C 284.421 159.385,283.736 160.613,282.924 161.836 C 281.711 163.663,281.550 164.124,282.024 164.423 C 282.947 165.007,283.095 164.885,283.385 163.300 C 283.536 162.475,283.927 161.384,284.254 160.876 C 284.582 160.368,284.769 159.648,284.671 159.276 C 284.573 158.904,284.472 158.828,284.446 159.106 M111.200 159.976 C 111.200 160.403,111.020 160.864,110.800 161.000 C 110.580 161.136,110.400 161.822,110.400 162.524 C 110.399 164.136,108.782 166.083,107.298 166.258 C 106.694 166.330,105.210 166.578,104.000 166.811 C 102.790 167.043,101.170 167.327,100.400 167.441 C 99.630 167.556,98.640 167.806,98.200 167.998 C 97.760 168.189,96.770 168.455,96.000 168.588 C 94.341 168.875,91.729 169.403,89.100 169.982 C 88.055 170.212,86.345 170.588,85.300 170.818 C 84.255 171.048,82.590 171.393,81.600 171.585 C 76.492 172.573,73.845 174.248,76.354 174.904 C 76.933 175.055,77.059 175.355,76.899 176.193 C 76.691 177.284,76.692 177.284,78.645 177.064 C 81.941 176.691,83.764 176.366,84.600 176.002 C 85.397 175.656,86.848 175.352,89.703 174.935 C 90.529 174.814,91.305 174.555,91.426 174.358 C 91.548 174.161,92.436 174.000,93.400 174.000 C 94.364 174.000,95.264 173.820,95.400 173.600 C 95.536 173.380,96.526 173.200,97.600 173.200 C 98.674 173.200,99.664 173.020,99.800 172.800 C 99.936 172.580,100.631 172.400,101.344 172.400 C 102.057 172.400,102.811 172.236,103.020 172.036 C 104.748 170.381,109.308 172.052,107.634 173.726 C 107.395 173.965,107.200 174.833,107.200 175.656 C 107.200 176.479,107.020 177.264,106.800 177.400 C 106.580 177.536,106.400 178.256,106.400 179.000 C 106.400 179.744,106.220 180.464,106.000 180.600 C 105.780 180.736,105.600 181.546,105.600 182.400 C 105.600 183.254,105.420 184.064,105.200 184.200 C 104.980 184.336,104.800 185.146,104.800 186.000 C 104.800 186.854,104.620 187.664,104.400 187.800 C 104.180 187.936,104.000 188.746,104.000 189.600 C 104.000 190.454,103.820 191.264,103.600 191.400 C 103.380 191.536,103.200 192.436,103.200 193.400 C 103.200 194.364,103.020 195.264,102.800 195.400 C 102.580 195.536,102.400 196.436,102.400 197.400 C 102.400 198.364,102.220 199.264,102.000 199.400 C 101.780 199.536,101.600 200.436,101.600 201.400 C 101.600 202.364,101.420 203.264,101.200 203.400 C 100.980 203.536,100.800 204.526,100.800 205.600 C 100.800 206.674,100.620 207.664,100.400 207.800 C 100.180 207.936,100.000 208.926,100.000 210.000 C 100.000 211.074,99.820 212.064,99.600 212.200 C 99.380 212.336,99.200 213.416,99.200 214.600 C 99.200 215.784,99.020 216.864,98.800 217.000 C 98.580 217.136,98.400 218.216,98.400 219.400 C 98.400 220.584,98.220 221.664,98.000 221.800 C 97.780 221.936,97.600 222.991,97.600 224.144 C 97.600 225.297,97.436 226.411,97.235 226.620 C 97.035 226.829,96.779 227.990,96.666 229.200 C 96.554 230.410,96.340 231.969,96.191 232.664 C 95.969 233.700,96.071 234.010,96.760 234.378 C 97.265 234.649,97.600 235.222,97.600 235.814 C 97.600 236.513,97.819 236.800,98.354 236.800 C 99.542 236.800,100.400 235.078,100.400 232.694 C 100.400 231.520,100.564 230.389,100.765 230.180 C 100.965 229.971,101.231 228.810,101.356 227.600 C 101.916 222.141,102.097 220.976,102.437 220.620 C 102.637 220.411,102.800 219.297,102.800 218.144 C 102.800 216.991,102.980 215.936,103.200 215.800 C 103.420 215.664,103.600 214.674,103.600 213.600 C 103.600 212.526,103.780 211.536,104.000 211.400 C 104.220 211.264,104.400 210.274,104.400 209.200 C 104.400 208.126,104.580 207.136,104.800 207.000 C 105.020 206.864,105.200 205.964,105.200 205.000 C 105.200 204.036,105.380 203.136,105.600 203.000 C 105.820 202.864,106.000 201.899,106.000 200.856 C 106.000 199.813,106.162 198.789,106.359 198.580 C 106.556 198.371,106.820 197.480,106.944 196.600 C 107.498 192.669,107.671 191.751,108.000 191.000 C 108.331 190.245,108.436 189.705,109.013 185.800 C 109.143 184.920,109.406 183.840,109.598 183.400 C 109.944 182.603,110.248 181.152,110.665 178.297 C 110.786 177.471,111.045 176.695,111.242 176.574 C 111.439 176.452,111.600 175.643,111.600 174.776 C 111.600 173.909,111.780 173.200,112.000 173.200 C 112.220 173.200,112.400 172.778,112.400 172.262 C 112.400 170.996,113.593 170.000,115.108 170.000 C 115.793 170.000,116.464 169.820,116.600 169.600 C 116.736 169.380,118.151 169.200,119.744 169.200 C 121.337 169.200,122.811 169.033,123.020 168.828 C 123.229 168.624,124.930 168.361,126.800 168.245 C 128.670 168.128,131.820 167.845,133.800 167.616 C 135.780 167.386,139.380 167.038,141.800 166.843 C 148.366 166.312,149.940 165.524,147.648 163.918 C 147.234 163.629,146.825 163.033,146.740 162.596 C 146.554 161.647,145.206 161.615,138.000 162.384 C 135.470 162.655,131.960 163.022,130.200 163.201 C 128.440 163.380,125.020 163.743,122.600 164.007 C 120.180 164.271,117.300 164.513,116.200 164.544 L 114.200 164.600 114.073 163.000 C 114.004 162.120,113.779 161.229,113.573 161.020 C 113.368 160.811,113.200 160.316,113.200 159.920 C 113.200 159.419,112.896 159.200,112.200 159.200 C 111.477 159.200,111.200 159.415,111.200 159.976 M286.013 161.451 C 286.039 162.160,287.200 163.407,287.200 162.725 C 287.200 162.380,286.930 161.874,286.600 161.600 C 286.270 161.326,286.006 161.259,286.013 161.451 M270.006 162.900 C 270.011 163.886,270.106 164.055,270.400 163.600 C 270.908 162.814,270.908 161.600,270.400 161.600 C 270.180 161.600,270.003 162.185,270.006 162.900 M294.258 168.854 C 293.973 171.580,294.715 172.800,296.661 172.800 C 298.361 172.800,298.073 167.443,296.340 166.839 C 294.513 166.202,294.537 166.179,294.258 168.854 M272.437 174.231 C 272.710 176.249,272.428 180.278,271.752 184.000 L 271.498 185.400 272.475 184.500 C 273.012 184.005,273.599 183.600,273.780 183.600 C 273.961 183.600,274.498 183.195,274.974 182.700 C 275.451 182.205,276.496 181.293,277.298 180.674 C 278.938 179.406,278.918 178.825,277.210 178.069 C 276.409 177.714,275.688 176.841,274.952 175.338 C 273.029 171.408,271.992 170.951,272.437 174.231 M298.403 173.189 C 297.928 173.490,297.908 173.668,298.303 174.063 C 299.387 175.147,298.827 177.847,297.657 177.176 C 297.296 176.969,296.109 176.431,295.020 175.980 L 293.039 175.160 293.820 176.043 C 294.249 176.528,295.015 177.349,295.522 177.866 C 296.523 178.888,296.390 179.600,295.200 179.600 C 293.959 179.600,294.013 180.119,295.423 181.746 C 296.671 183.184,296.847 183.262,297.973 182.869 C 298.842 182.567,299.260 182.573,299.457 182.892 C 300.019 183.802,300.254 181.712,300.084 177.300 C 299.910 172.758,299.741 172.344,298.403 173.189 M303.600 184.800 C 302.610 185.425,301.485 185.951,301.100 185.969 C 300.715 185.986,300.400 186.233,300.400 186.519 C 300.400 186.834,300.831 187.011,301.500 186.970 C 302.105 186.933,303.279 186.880,304.110 186.852 C 305.702 186.797,306.662 185.549,306.146 184.203 C 305.847 183.424,305.738 183.449,303.600 184.800 M191.600 198.732 C 191.600 199.622,185.945 205.200,185.043 205.200 C 184.175 205.200,184.234 204.674,185.200 203.800 C 185.640 203.402,186.000 202.870,186.000 202.619 C 186.000 201.842,190.326 198.089,191.300 198.021 C 191.465 198.009,191.600 198.330,191.600 198.732 M125.933 206.856 C 127.447 209.790,127.502 210.869,126.263 213.315 C 124.820 216.166,124.523 216.400,122.351 216.400 L 120.400 216.400 120.400 214.024 C 120.400 212.717,120.580 211.536,120.800 211.400 C 121.020 211.264,121.200 210.634,121.200 210.000 C 121.200 209.366,121.380 208.736,121.600 208.600 C 121.820 208.464,122.000 208.003,122.000 207.576 C 122.000 207.149,122.180 206.800,122.400 206.800 C 122.620 206.800,122.800 206.522,122.800 206.183 C 122.800 205.451,123.622 204.437,124.233 204.415 C 124.472 204.407,125.237 205.505,125.933 206.856 M255.392 212.386 C 255.523 212.599,255.003 213.184,254.236 213.686 C 252.053 215.116,252.045 215.997,254.200 217.445 C 256.875 219.242,262.254 219.996,264.312 218.861 C 265.206 218.369,265.179 218.324,262.912 216.612 C 261.640 215.652,259.980 214.221,259.222 213.433 C 257.936 212.097,254.659 211.201,255.392 212.386 M306.496 212.340 C 305.614 212.594,302.547 217.081,302.968 217.501 C 303.080 217.613,304.126 217.317,305.293 216.843 C 310.782 214.615,311.798 210.814,306.496 212.340 M276.720 224.880 C 276.984 225.144,277.200 225.661,277.200 226.029 C 277.200 227.092,280.613 229.953,283.528 231.334 C 286.102 232.554,294.800 233.530,294.800 232.600 C 294.800 232.153,293.107 230.844,291.400 229.969 C 289.343 228.915,288.220 228.271,287.543 227.756 C 287.244 227.530,286.280 227.141,285.400 226.893 C 284.520 226.645,282.304 225.982,280.475 225.421 C 276.702 224.262,276.001 224.161,276.720 224.880 M208.400 226.400 C 208.400 226.620,208.220 226.800,208.000 226.800 C 207.780 226.800,207.600 227.072,207.600 227.405 C 207.600 228.542,205.041 231.975,204.556 231.489 C 204.345 231.278,205.613 228.878,206.874 227.100 C 207.658 225.995,208.400 225.655,208.400 226.400 M267.847 228.820 C 266.042 231.618,266.125 232.034,268.209 230.620 C 269.035 230.059,270.092 229.588,270.556 229.573 C 271.395 229.546,271.395 229.543,270.521 229.121 C 269.982 228.861,269.596 228.256,269.521 227.555 C 269.406 226.465,269.328 226.523,267.847 228.820 M259.761 241.854 C 258.507 243.804,256.972 246.189,256.350 247.154 C 255.034 249.196,255.199 249.939,256.728 248.854 C 257.318 248.436,258.610 247.811,259.600 247.466 C 260.590 247.121,261.091 246.830,260.714 246.819 C 259.816 246.794,259.142 245.536,259.622 244.778 C 259.823 244.460,259.991 243.787,259.994 243.283 C 259.997 242.779,260.360 241.980,260.800 241.508 C 261.240 241.036,261.600 240.338,261.600 239.958 C 261.600 239.578,261.825 239.186,262.100 239.088 C 262.375 238.990,262.474 238.774,262.321 238.609 C 262.167 238.444,261.016 239.904,259.761 241.854 " stroke="none" fill="#181a0e" fill-rule="evenodd"></path><path id="path1" d="M0.000 199.800 L 0.000 399.600 199.800 399.600 L 399.600 399.600 399.600 199.800 L 399.600 0.000 199.800 0.000 L 0.000 0.000 0.000 199.800 M288.830 143.268 C 291.458 144.444,291.771 144.499,293.102 144.018 C 297.199 142.536,300.662 144.059,302.236 148.036 C 302.971 149.893,303.455 150.440,305.646 151.891 C 313.094 156.823,314.311 158.827,315.191 167.616 C 315.423 169.934,315.976 172.787,316.420 173.956 C 317.460 176.692,316.777 178.403,314.000 180.019 C 312.204 181.063,312.200 181.071,312.200 183.314 C 312.200 186.259,311.573 186.893,308.442 187.120 C 306.200 187.282,306.079 187.343,306.388 188.146 C 306.708 188.977,307.007 190.062,308.057 194.200 C 309.173 198.598,308.498 207.228,306.787 210.424 C 306.175 211.568,307.937 211.299,312.400 209.568 C 314.050 208.927,315.597 208.403,315.839 208.402 C 316.080 208.401,316.817 208.131,317.477 207.801 C 319.897 206.594,326.259 205.943,327.564 206.769 C 327.950 207.013,327.379 207.210,325.764 207.391 C 321.646 207.853,318.062 209.446,312.800 213.155 C 307.746 216.718,307.446 216.893,304.200 218.165 C 302.285 218.915,300.669 219.935,299.088 221.391 C 297.817 222.562,296.160 223.813,295.405 224.171 C 293.328 225.157,293.381 225.421,296.013 227.209 C 297.881 228.478,299.160 228.997,301.523 229.448 C 308.421 230.765,310.297 231.843,312.186 235.575 C 314.453 240.054,314.460 243.347,312.195 239.916 C 308.847 234.844,306.636 234.001,296.689 233.998 C 289.702 233.996,287.345 233.764,285.000 232.850 C 280.541 231.112,277.470 228.581,276.051 225.475 C 274.738 222.598,271.600 221.576,271.600 224.025 C 271.600 224.425,271.443 224.850,271.252 224.968 C 269.784 225.875,270.491 228.706,272.268 229.039 C 273.969 229.358,273.669 229.649,270.725 230.538 C 267.670 231.461,266.661 232.736,261.860 241.737 C 260.117 245.004,260.076 245.512,261.465 246.619 C 262.875 247.744,262.389 248.400,260.144 248.400 C 257.987 248.400,254.620 251.394,252.611 255.100 L 251.473 257.200 248.760 257.200 C 245.259 257.200,245.218 257.054,247.724 253.550 C 254.996 243.379,257.563 239.164,262.933 228.573 C 267.962 218.655,268.026 218.259,264.366 219.650 C 259.773 221.395,253.867 219.442,248.890 214.531 C 245.112 210.803,244.453 208.996,243.812 200.612 C 243.317 194.146,243.194 193.530,241.401 188.477 C 239.437 182.946,239.337 181.904,240.946 183.777 C 243.728 187.014,246.149 192.101,248.383 199.400 C 250.104 205.025,253.198 209.383,255.988 210.113 C 256.985 210.374,257.004 210.637,255.765 206.912 C 253.364 199.686,254.237 190.469,258.056 182.735 C 261.307 176.152,262.347 169.817,261.000 164.800 C 260.185 161.765,260.219 161.255,261.166 162.271 C 263.340 164.605,264.618 172.586,263.750 178.400 L 263.481 180.200 264.476 179.000 C 265.840 177.356,267.723 173.772,268.363 171.600 C 268.655 170.610,269.052 169.278,269.247 168.640 C 269.852 166.653,269.657 163.070,268.851 161.375 C 268.439 160.509,267.971 158.900,267.813 157.800 C 267.654 156.700,267.271 155.193,266.962 154.451 C 266.197 152.615,266.257 151.640,267.231 150.042 C 268.757 147.538,270.171 146.800,273.439 146.800 C 276.005 146.800,277.121 146.295,280.024 143.817 C 282.752 141.488,284.592 141.373,288.830 143.268 M162.500 152.957 C 162.885 153.249,163.200 153.744,163.200 154.056 C 163.200 154.368,163.560 154.883,164.000 155.200 C 164.856 155.817,165.040 157.347,164.442 158.881 C 164.245 159.387,163.867 160.610,163.603 161.600 C 163.338 162.590,162.960 163.713,162.761 164.095 C 162.562 164.477,162.400 165.064,162.400 165.400 C 162.400 165.736,162.192 166.413,161.938 166.905 C 160.966 168.784,160.800 169.207,160.800 169.800 C 160.800 170.136,160.641 170.723,160.447 171.105 C 160.073 171.840,159.324 173.599,158.746 175.100 C 158.068 176.863,157.669 177.825,156.840 179.696 C 156.378 180.738,156.001 181.728,156.001 181.896 C 156.002 182.063,155.086 184.090,153.966 186.400 C 152.845 188.710,151.744 191.050,151.518 191.600 C 151.292 192.150,150.948 192.913,150.753 193.295 C 150.559 193.677,150.400 194.352,150.400 194.795 C 150.400 195.238,150.220 195.600,150.000 195.600 C 149.780 195.600,149.600 196.129,149.600 196.776 C 149.600 197.423,149.420 198.064,149.200 198.200 C 148.980 198.336,148.800 198.966,148.800 199.600 C 148.800 200.234,148.620 200.864,148.400 201.000 C 148.180 201.136,148.000 201.766,148.000 202.400 C 148.000 203.034,147.820 203.664,147.600 203.800 C 147.380 203.936,147.200 204.746,147.200 205.600 C 147.200 206.454,147.020 207.264,146.800 207.400 C 146.580 207.536,146.400 207.929,146.400 208.273 C 146.400 208.783,146.510 208.807,147.000 208.400 C 147.330 208.126,147.600 207.687,147.600 207.424 C 147.600 206.206,155.627 198.908,158.562 197.458 C 163.011 195.259,165.019 195.752,166.765 199.474 C 167.056 200.093,167.452 200.913,167.647 201.295 C 167.841 201.677,168.000 202.892,168.000 203.995 C 168.000 206.312,167.953 206.285,169.908 205.079 C 170.729 204.573,173.830 202.955,176.800 201.484 C 181.236 199.287,182.628 198.375,184.595 196.378 C 187.397 193.533,190.159 192.074,192.200 192.358 C 193.121 192.486,195.200 194.326,195.200 195.013 C 195.200 195.268,195.560 195.802,196.000 196.200 C 196.857 196.976,197.134 199.746,196.400 200.200 C 196.180 200.336,196.000 200.703,196.000 201.016 C 196.000 203.964,188.595 210.798,184.124 211.976 C 182.241 212.473,181.778 213.289,182.176 215.412 C 182.530 217.299,184.467 217.669,187.400 216.410 C 187.840 216.221,188.785 215.828,189.500 215.536 C 190.215 215.244,190.800 214.869,190.800 214.702 C 190.800 214.536,190.993 214.400,191.228 214.400 C 192.135 214.400,195.643 211.612,201.700 206.077 L 208.000 200.321 208.000 197.772 C 208.000 191.999,213.326 185.600,218.131 185.600 C 220.120 185.600,220.716 186.115,222.248 189.154 C 222.693 190.037,221.828 190.989,220.456 191.126 C 214.452 191.723,211.855 197.085,213.542 205.400 C 213.810 206.720,214.134 208.835,214.263 210.100 C 214.548 212.910,214.480 212.908,218.297 210.192 C 220.004 208.978,222.030 207.551,222.800 207.021 C 223.570 206.492,225.370 205.230,226.800 204.217 C 234.140 199.021,235.600 198.487,235.600 201.000 C 235.600 201.262,235.960 201.802,236.400 202.200 C 237.634 203.317,236.466 204.977,232.636 207.549 C 229.717 209.510,229.299 209.799,228.224 210.600 C 227.633 211.040,226.640 211.805,226.017 212.300 C 225.394 212.795,224.708 213.200,224.491 213.200 C 224.275 213.200,223.854 213.494,223.555 213.854 C 223.256 214.214,222.305 214.979,221.442 215.554 C 216.770 218.666,215.620 219.612,214.961 220.880 C 214.652 221.474,214.396 222.464,214.390 223.080 C 214.385 223.696,214.021 225.280,213.583 226.600 C 210.305 236.461,204.495 239.823,201.140 233.800 C 198.736 229.484,200.087 225.859,206.406 219.666 L 209.600 216.536 209.600 211.868 C 209.600 209.301,209.490 207.200,209.356 207.200 C 209.222 207.200,207.107 209.050,204.656 211.312 C 197.680 217.750,194.418 220.002,188.681 222.343 C 187.193 222.951,183.413 222.925,182.295 222.300 C 180.248 221.156,179.559 220.144,177.657 215.481 C 177.094 214.103,177.052 209.338,177.600 209.000 C 178.128 208.674,178.113 208.000,177.579 208.000 C 177.347 208.000,175.443 208.990,173.347 210.200 C 171.251 211.410,169.371 212.400,169.168 212.400 C 168.966 212.400,168.800 212.568,168.800 212.773 C 168.800 212.978,168.423 213.266,167.962 213.412 C 166.908 213.747,164.000 216.709,164.000 217.448 C 164.000 217.752,163.820 218.000,163.600 218.000 C 163.380 218.000,163.200 218.360,163.200 218.800 C 163.200 219.240,163.032 219.600,162.827 219.600 C 162.622 219.600,162.343 219.951,162.206 220.380 C 162.070 220.808,161.473 221.698,160.880 222.357 C 160.286 223.016,159.205 224.285,158.477 225.177 C 157.750 226.070,156.977 226.800,156.761 226.800 C 156.544 226.800,155.980 227.160,155.508 227.600 C 154.510 228.529,151.427 228.711,150.671 227.885 C 147.969 224.929,149.274 220.854,154.351 216.400 C 161.222 210.373,162.000 209.453,162.000 207.362 C 162.000 206.859,162.180 206.336,162.400 206.200 C 162.894 205.895,162.936 202.400,162.446 202.400 C 161.310 202.400,156.985 205.465,154.991 207.683 C 152.498 210.456,151.215 212.157,151.207 212.700 C 151.203 212.975,151.046 213.200,150.858 213.200 C 150.551 213.200,147.721 218.653,146.705 221.200 C 146.486 221.750,146.148 222.513,145.953 222.895 C 145.759 223.277,145.600 223.952,145.600 224.395 C 145.600 224.838,145.420 225.200,145.200 225.200 C 144.980 225.200,144.800 225.740,144.800 226.400 C 144.800 227.060,144.620 227.600,144.400 227.600 C 144.180 227.600,144.000 228.140,144.000 228.800 C 144.000 229.460,143.820 230.000,143.600 230.000 C 143.380 230.000,143.200 230.463,143.200 231.029 C 143.200 233.476,140.753 233.878,139.504 231.636 C 138.674 230.144,138.699 226.908,139.590 220.800 C 139.830 219.150,140.127 216.810,140.249 215.600 C 140.371 214.390,140.635 213.229,140.835 213.020 C 141.036 212.811,141.200 211.697,141.200 210.544 C 141.200 209.391,141.380 208.336,141.600 208.200 C 141.820 208.064,142.000 207.510,142.000 206.969 C 142.000 205.856,141.599 205.885,137.828 207.263 C 136.719 207.668,135.341 208.000,134.765 208.000 C 134.190 208.000,133.153 208.198,132.460 208.439 L 131.200 208.878 131.200 212.216 C 131.200 214.051,131.020 215.664,130.800 215.800 C 130.580 215.936,130.400 216.368,130.400 216.760 C 130.400 217.653,127.095 221.200,126.263 221.200 C 125.924 221.200,125.536 221.380,125.400 221.600 C 124.544 222.986,119.568 221.408,118.461 219.400 C 118.098 218.740,117.710 218.110,117.599 218.000 C 116.303 216.708,115.669 209.371,116.759 208.281 C 117.002 208.038,117.200 207.437,117.200 206.944 C 117.200 206.451,117.380 205.936,117.600 205.800 C 117.820 205.664,118.000 205.203,118.000 204.776 C 118.000 204.349,118.146 204.000,118.325 204.000 C 118.504 204.000,118.899 203.366,119.203 202.591 C 119.507 201.817,120.081 200.889,120.478 200.529 C 120.875 200.170,121.200 199.711,121.200 199.509 C 121.200 198.831,123.993 196.710,125.527 196.223 C 127.947 195.455,130.016 200.679,127.700 201.709 C 126.141 202.402,132.339 202.644,134.600 201.978 C 136.792 201.332,140.452 200.015,141.295 199.568 C 141.677 199.366,142.352 199.200,142.795 199.200 C 143.419 199.200,143.600 198.936,143.600 198.024 C 143.600 197.377,143.780 196.736,144.000 196.600 C 144.220 196.464,144.400 195.834,144.400 195.200 C 144.400 194.566,144.580 193.936,144.800 193.800 C 145.020 193.664,145.200 193.124,145.200 192.600 C 145.200 192.076,145.380 191.536,145.600 191.400 C 145.820 191.264,146.000 190.634,146.000 190.000 C 146.000 189.366,146.180 188.736,146.400 188.600 C 146.620 188.464,146.800 187.834,146.800 187.200 C 146.800 186.566,146.980 185.936,147.200 185.800 C 147.420 185.664,147.600 185.124,147.600 184.600 C 147.600 184.076,147.780 183.536,148.000 183.400 C 148.220 183.264,148.400 182.801,148.400 182.371 C 148.400 181.941,148.562 181.277,148.761 180.895 C 148.960 180.513,149.351 179.390,149.631 178.400 C 149.910 177.410,150.288 176.429,150.470 176.220 C 150.651 176.011,150.800 175.437,150.800 174.944 C 150.800 174.451,150.980 173.936,151.200 173.800 C 151.420 173.664,151.600 173.124,151.600 172.600 C 151.600 172.076,151.780 171.536,152.000 171.400 C 152.220 171.264,152.400 170.809,152.400 170.389 C 152.400 169.968,152.760 168.983,153.200 168.200 C 153.640 167.417,154.000 166.517,154.000 166.200 C 154.000 165.883,154.360 164.983,154.800 164.200 C 155.240 163.417,155.599 162.556,155.597 162.288 C 155.591 161.449,158.803 155.378,160.060 153.854 C 161.390 152.240,161.501 152.199,162.500 152.957 M113.600 159.520 C 113.600 159.916,113.801 160.441,114.048 160.688 C 114.294 160.934,114.485 161.886,114.472 162.805 L 114.449 164.474 116.525 164.217 C 117.666 164.076,120.130 163.874,122.000 163.768 C 123.870 163.663,125.760 163.407,126.200 163.201 C 126.640 162.994,128.440 162.734,130.200 162.622 C 131.960 162.510,135.290 162.229,137.600 161.997 C 145.411 161.212,146.980 161.262,147.128 162.301 C 147.198 162.796,147.603 163.388,148.028 163.615 C 149.010 164.141,149.059 165.942,148.100 166.249 C 147.715 166.372,147.040 166.628,146.600 166.819 C 146.160 167.009,144.090 167.262,142.000 167.380 C 138.454 167.580,136.230 167.794,127.300 168.791 C 113.185 170.367,112.800 170.458,112.800 172.225 C 112.800 172.735,112.620 173.264,112.400 173.400 C 112.180 173.536,112.000 174.346,112.000 175.200 C 112.000 176.054,111.820 176.864,111.600 177.000 C 111.380 177.136,111.200 177.856,111.200 178.600 C 111.200 179.344,111.020 180.064,110.800 180.200 C 110.580 180.336,110.400 181.146,110.400 182.000 C 110.400 182.854,110.220 183.664,110.000 183.800 C 109.780 183.936,109.600 184.746,109.600 185.600 C 109.600 186.454,109.420 187.264,109.200 187.400 C 108.980 187.536,108.800 188.436,108.800 189.400 C 108.800 190.364,108.620 191.264,108.400 191.400 C 108.180 191.536,108.000 192.346,108.000 193.200 C 108.000 194.054,107.820 194.864,107.600 195.000 C 107.380 195.136,107.200 196.036,107.200 197.000 C 107.200 197.964,107.020 198.864,106.800 199.000 C 106.580 199.136,106.400 200.036,106.400 201.000 C 106.400 201.964,106.220 202.864,106.000 203.000 C 105.780 203.136,105.600 204.126,105.600 205.200 C 105.600 206.274,105.420 207.264,105.200 207.400 C 104.980 207.536,104.800 208.526,104.800 209.600 C 104.800 210.674,104.620 211.664,104.400 211.800 C 104.180 211.936,104.000 212.901,104.000 213.944 C 104.000 214.987,103.837 216.011,103.637 216.220 C 103.437 216.429,103.175 217.500,103.054 218.600 C 102.934 219.700,102.638 221.770,102.398 223.200 C 102.157 224.630,101.863 226.790,101.745 228.000 C 101.626 229.210,101.365 230.371,101.165 230.580 C 100.964 230.789,100.800 231.913,100.800 233.077 C 100.800 235.501,99.699 237.200,98.128 237.200 C 97.372 237.200,97.200 236.986,97.200 236.047 C 97.200 235.230,96.967 234.832,96.400 234.684 C 95.531 234.457,95.217 231.884,96.000 231.400 C 96.220 231.264,96.400 230.094,96.400 228.800 C 96.400 227.506,96.580 226.336,96.800 226.200 C 97.020 226.064,97.200 224.984,97.200 223.800 C 97.200 222.616,97.380 221.536,97.600 221.400 C 97.820 221.264,98.000 220.184,98.000 219.000 C 98.000 217.816,98.180 216.736,98.400 216.600 C 98.620 216.464,98.800 215.474,98.800 214.400 C 98.800 213.326,98.980 212.336,99.200 212.200 C 99.420 212.064,99.600 210.984,99.600 209.800 C 99.600 208.616,99.780 207.536,100.000 207.400 C 100.220 207.264,100.400 206.274,100.400 205.200 C 100.400 204.126,100.580 203.136,100.800 203.000 C 101.020 202.864,101.200 201.964,101.200 201.000 C 101.200 200.036,101.380 199.136,101.600 199.000 C 101.820 198.864,102.000 197.964,102.000 197.000 C 102.000 196.036,102.180 195.136,102.400 195.000 C 102.620 194.864,102.800 193.964,102.800 193.000 C 102.800 192.036,102.980 191.136,103.200 191.000 C 103.420 190.864,103.600 190.054,103.600 189.200 C 103.600 188.346,103.780 187.536,104.000 187.400 C 104.220 187.264,104.400 186.454,104.400 185.600 C 104.400 184.746,104.580 183.936,104.800 183.800 C 105.020 183.664,105.200 182.843,105.200 181.976 C 105.200 181.109,105.380 180.400,105.600 180.400 C 105.820 180.400,106.000 179.691,106.000 178.824 C 106.000 177.957,106.180 177.136,106.400 177.000 C 106.620 176.864,106.800 176.144,106.800 175.400 C 106.800 174.656,106.980 173.936,107.200 173.800 C 108.598 172.936,107.564 171.930,105.500 172.145 C 101.796 172.531,100.001 172.875,99.774 173.242 C 99.652 173.439,98.764 173.600,97.800 173.600 C 96.836 173.600,95.936 173.780,95.800 174.000 C 95.664 174.220,94.764 174.400,93.800 174.400 C 92.836 174.400,91.948 174.561,91.826 174.758 C 91.705 174.955,90.929 175.213,90.103 175.332 C 88.657 175.540,86.975 175.893,82.900 176.843 C 79.020 177.748,76.617 177.552,76.475 176.319 C 76.401 175.673,76.039 175.139,75.575 174.992 C 74.064 174.513,75.708 172.400,77.592 172.400 C 78.230 172.400,78.852 172.239,78.974 172.042 C 79.182 171.706,79.901 171.554,84.100 170.959 C 85.035 170.826,85.971 170.556,86.180 170.359 C 86.389 170.162,87.208 170.000,88.000 170.000 C 88.792 170.000,89.611 169.838,89.820 169.641 C 90.029 169.444,90.920 169.180,91.800 169.056 C 95.726 168.503,96.649 168.329,97.400 168.002 C 97.840 167.811,98.830 167.545,99.600 167.412 C 100.370 167.279,101.900 166.987,103.000 166.765 C 104.100 166.542,105.710 166.256,106.578 166.130 C 107.446 166.004,108.346 165.691,108.578 165.435 C 109.461 164.460,110.000 163.168,110.000 162.029 C 110.000 161.379,110.180 160.736,110.400 160.600 C 110.620 160.464,110.800 160.003,110.800 159.576 C 110.800 158.956,111.081 158.800,112.200 158.800 C 113.281 158.800,113.600 158.964,113.600 159.520 M189.189 199.884 C 187.515 201.041,185.310 203.843,185.737 204.270 C 185.998 204.531,190.800 200.044,190.800 199.539 C 190.800 199.020,190.277 199.132,189.189 199.884 M123.729 205.304 C 123.530 205.577,123.128 206.340,122.837 207.000 C 122.545 207.660,122.148 208.513,121.953 208.895 C 121.759 209.277,121.600 210.042,121.600 210.595 C 121.600 211.148,121.420 211.600,121.200 211.600 C 120.980 211.600,120.800 212.590,120.800 213.800 L 120.800 216.000 122.429 216.000 C 126.626 216.000,128.188 207.341,124.411 205.007 C 124.235 204.898,123.928 205.032,123.729 205.304 " stroke="none" fill="#fbfbfb" fill-rule="evenodd"></path><path id="path2" d="M280.024 144.217 C 277.159 146.662,276.267 147.057,273.052 147.304 C 268.019 147.691,266.100 150.209,267.526 154.554 C 268.007 156.019,268.400 157.657,268.400 158.195 C 268.400 159.747,269.615 161.969,270.317 161.700 C 270.804 161.513,270.863 161.690,270.625 162.635 C 270.463 163.276,270.191 164.970,270.021 166.400 C 269.259 172.790,267.786 175.759,261.517 183.550 C 255.907 190.522,254.127 195.944,255.210 202.770 C 255.674 205.695,255.833 206.226,257.204 209.400 C 257.585 210.280,258.020 211.400,258.171 211.889 C 258.548 213.105,262.997 217.018,265.200 218.072 C 266.190 218.545,267.450 219.241,268.000 219.619 C 269.717 220.799,271.758 221.857,272.829 222.124 C 273.395 222.265,274.475 222.798,275.229 223.309 C 282.289 228.092,293.186 226.694,299.911 220.140 C 308.411 211.857,310.114 202.432,305.772 187.700 C 305.517 186.836,305.604 186.800,307.953 186.800 C 311.378 186.800,312.490 185.740,311.578 183.341 C 310.992 181.802,311.668 180.696,313.895 179.551 C 316.588 178.166,317.163 176.691,316.087 173.931 C 315.121 171.453,314.400 167.412,314.400 164.479 C 314.400 160.318,308.869 152.800,305.808 152.800 C 305.694 152.800,305.600 154.538,305.600 156.662 L 305.600 160.524 304.600 159.362 C 303.419 157.988,303.383 157.761,304.274 157.262 C 305.733 156.446,305.645 152.506,304.149 151.623 C 303.201 151.063,302.659 150.295,302.127 148.755 C 300.667 144.531,298.054 143.094,293.935 144.250 L 291.598 144.906 288.795 143.653 C 284.594 141.775,282.746 141.893,280.024 144.217 M282.000 154.200 C 280.465 155.784,280.423 155.798,279.422 155.066 C 278.347 154.279,279.999 152.800,281.954 152.800 L 283.357 152.800 282.000 154.200 M297.626 154.014 C 298.525 154.495,298.666 155.600,297.829 155.600 C 297.188 155.600,296.000 154.542,296.000 153.971 C 296.000 153.483,296.666 153.500,297.626 154.014 M275.736 156.400 C 275.012 157.626,274.608 157.860,274.240 157.265 C 273.933 156.768,275.152 155.200,275.845 155.200 C 276.354 155.200,276.338 155.382,275.736 156.400 M294.950 163.281 C 294.191 164.510,290.800 160.941,290.800 158.914 C 290.800 158.456,291.548 159.032,292.973 160.589 C 294.169 161.894,295.058 163.106,294.950 163.281 M284.254 160.876 C 283.927 161.384,283.536 162.475,283.385 163.300 C 283.095 164.885,282.947 165.007,282.024 164.423 C 281.550 164.124,281.711 163.663,282.924 161.836 C 283.736 160.613,284.421 159.385,284.446 159.106 C 284.472 158.828,284.573 158.904,284.671 159.276 C 284.769 159.648,284.582 160.368,284.254 160.876 M287.200 162.725 C 287.200 163.228,287.083 163.198,286.613 162.576 C 285.844 161.561,285.837 160.966,286.600 161.600 C 286.930 161.874,287.200 162.380,287.200 162.725 M296.340 166.839 C 298.073 167.443,298.361 172.800,296.661 172.800 C 294.715 172.800,293.973 171.580,294.258 168.854 C 294.537 166.179,294.513 166.202,296.340 166.839 M273.307 172.564 C 273.617 172.874,274.357 174.122,274.952 175.338 C 275.688 176.841,276.409 177.714,277.210 178.069 C 278.918 178.825,278.938 179.406,277.298 180.674 C 276.496 181.293,275.451 182.205,274.974 182.700 C 274.498 183.195,273.961 183.600,273.780 183.600 C 273.599 183.600,273.012 184.005,272.475 184.500 L 271.498 185.400 271.752 184.000 C 272.428 180.278,272.710 176.249,272.437 174.231 C 272.126 171.944,272.319 171.576,273.307 172.564 M300.084 177.300 C 300.254 181.712,300.019 183.802,299.457 182.892 C 299.260 182.573,298.842 182.567,297.973 182.869 C 296.847 183.262,296.671 183.184,295.423 181.746 C 294.013 180.119,293.959 179.600,295.200 179.600 C 296.390 179.600,296.523 178.888,295.522 177.866 C 295.015 177.349,294.249 176.528,293.820 176.043 L 293.039 175.160 295.020 175.980 C 296.109 176.431,297.296 176.969,297.657 177.176 C 298.827 177.847,299.387 175.147,298.303 174.063 C 297.908 173.668,297.928 173.490,298.403 173.189 C 299.741 172.344,299.910 172.758,300.084 177.300 M306.146 184.203 C 306.662 185.549,305.702 186.797,304.110 186.852 C 303.279 186.880,302.105 186.933,301.500 186.970 C 300.831 187.011,300.400 186.834,300.400 186.519 C 300.400 186.233,300.715 185.986,301.100 185.969 C 301.485 185.951,302.610 185.425,303.600 184.800 C 305.738 183.449,305.847 183.424,306.146 184.203 " stroke="none" fill="#c01d23" fill-rule="evenodd"></path><path id="path3" d="M137.100 162.289 C 137.815 162.378,138.985 162.378,139.700 162.289 C 140.415 162.201,139.830 162.128,138.400 162.128 C 136.970 162.128,136.385 162.201,137.100 162.289 M129.091 163.089 C 129.801 163.177,131.061 163.179,131.891 163.092 C 132.721 163.005,132.140 162.933,130.600 162.931 C 129.060 162.929,128.381 163.000,129.091 163.089 M261.417 164.400 C 262.626 170.906,261.862 175.665,258.455 182.838 C 255.866 188.288,254.444 193.461,255.185 194.731 C 255.498 195.268,255.578 195.148,255.588 194.129 C 255.605 192.387,257.848 188.227,260.897 184.286 L 263.440 181.000 263.537 175.400 C 263.616 170.822,263.492 169.313,262.854 167.131 C 261.919 163.930,261.008 162.199,261.417 164.400 M121.491 163.889 C 122.201 163.977,123.461 163.979,124.291 163.892 C 125.121 163.805,124.540 163.733,123.000 163.731 C 121.460 163.729,120.781 163.800,121.491 163.889 M115.905 164.683 C 116.402 164.779,117.122 164.775,117.505 164.675 C 117.887 164.575,117.480 164.496,116.600 164.501 C 115.720 164.505,115.407 164.587,115.905 164.683 M240.413 184.505 C 240.406 184.893,240.574 185.523,240.786 185.905 C 242.631 189.225,244.403 197.456,244.396 202.677 C 244.388 208.822,247.838 214.523,253.276 217.352 C 254.444 217.959,255.040 218.170,254.600 217.821 C 252.692 216.304,252.470 216.020,252.650 215.329 C 252.756 214.928,253.469 214.189,254.236 213.686 C 255.012 213.178,255.512 212.581,255.363 212.339 C 255.182 212.047,255.613 211.955,256.685 212.058 C 258.045 212.187,258.249 212.107,258.091 211.505 C 257.983 211.093,257.529 210.800,256.999 210.800 C 255.611 210.800,252.403 208.419,250.979 206.332 C 249.753 204.536,249.144 202.994,246.460 194.898 C 244.834 189.991,240.452 182.461,240.413 184.505 M162.893 204.400 C 162.893 205.170,162.975 205.485,163.076 205.100 C 163.176 204.715,163.176 204.085,163.076 203.700 C 162.975 203.315,162.893 203.630,162.893 204.400 M319.800 207.370 C 318.920 207.626,317.503 208.143,316.651 208.518 C 315.799 208.893,314.989 209.199,314.851 209.198 C 314.713 209.197,313.250 209.718,311.600 210.355 C 309.950 210.993,307.970 211.694,307.200 211.913 C 305.946 212.269,306.020 212.288,307.900 212.100 C 311.082 211.780,310.954 213.372,307.611 215.709 C 307.067 216.089,306.751 216.400,306.909 216.400 C 307.068 216.400,309.583 214.811,312.498 212.870 C 317.575 209.490,321.280 207.600,322.830 207.600 C 323.227 207.600,323.664 207.420,323.800 207.200 C 324.125 206.674,321.862 206.770,319.800 207.370 M266.946 221.100 C 265.497 224.649,259.445 236.425,256.822 240.800 C 255.449 243.091,249.993 251.251,249.601 251.600 C 249.022 252.116,246.400 256.048,246.400 256.401 C 246.400 256.621,247.453 256.800,248.747 256.800 L 251.095 256.800 252.647 254.132 C 253.501 252.665,254.151 251.302,254.090 251.103 C 254.030 250.903,254.137 250.838,254.329 250.956 C 254.521 251.075,255.200 250.600,255.839 249.901 C 256.477 249.202,256.701 248.857,256.336 249.135 C 255.170 250.019,255.178 248.972,256.350 247.154 C 256.972 246.189,258.500 243.816,259.745 241.879 C 260.990 239.943,262.177 238.462,262.382 238.589 C 262.869 238.890,264.942 235.353,264.601 234.802 C 264.458 234.570,264.579 234.430,264.870 234.490 C 265.199 234.558,265.367 234.274,265.312 233.739 C 265.263 233.266,265.488 232.659,265.812 232.390 C 266.172 232.091,266.400 232.063,266.400 232.318 C 266.400 232.546,266.175 232.814,265.900 232.912 C 265.625 233.010,265.490 233.185,265.600 233.300 C 265.710 233.415,266.569 232.706,267.510 231.725 C 269.106 230.059,269.100 229.749,267.498 231.125 C 266.146 232.286,266.307 231.207,267.840 228.840 C 268.767 227.408,269.497 226.634,269.665 226.906 C 269.830 227.173,270.060 226.901,270.225 226.243 C 270.379 225.629,270.826 224.468,271.218 223.663 C 271.932 222.196,271.707 221.212,270.651 221.191 C 270.403 221.186,269.750 220.830,269.200 220.400 C 267.828 219.327,267.648 219.383,266.946 221.100 M291.000 225.600 C 290.560 225.789,288.490 225.971,286.400 226.003 C 284.310 226.036,282.780 226.117,283.000 226.183 C 283.220 226.249,284.210 226.537,285.200 226.823 C 286.190 227.110,287.244 227.530,287.543 227.756 C 288.220 228.271,289.343 228.915,291.400 229.969 C 293.051 230.815,294.800 232.150,294.800 232.564 C 294.800 232.694,293.150 232.800,291.133 232.800 C 289.117 232.800,287.598 232.931,287.758 233.091 C 287.918 233.251,291.773 233.402,296.324 233.427 C 306.014 233.479,307.645 233.953,311.009 237.694 C 312.660 239.531,312.800 239.608,312.800 238.681 C 312.800 234.456,307.209 230.000,301.909 230.000 C 300.059 230.000,296.614 228.403,294.427 226.531 C 292.814 225.149,292.345 225.022,291.000 225.600 M281.144 230.376 C 281.664 230.829,282.279 231.200,282.511 231.200 C 283.003 231.200,282.979 231.180,281.400 230.255 L 280.200 229.553 281.144 230.376 M260.679 241.617 C 260.305 242.052,260.001 242.722,260.001 243.105 C 260.002 243.555,260.292 243.326,260.823 242.455 C 261.762 240.914,261.682 240.445,260.679 241.617 M260.056 247.259 C 259.317 247.472,258.777 247.704,258.856 247.775 C 259.156 248.046,261.600 247.493,261.600 247.155 C 261.600 246.960,261.555 246.816,261.500 246.836 C 261.445 246.856,260.795 247.046,260.056 247.259 " stroke="none" fill="#90b137" fill-rule="evenodd"></path><path id="path4" d="M280.024 143.817 C 277.121 146.295,276.005 146.800,273.439 146.800 C 268.361 146.800,265.287 150.431,266.962 154.451 C 267.271 155.193,267.654 156.700,267.813 157.800 C 267.971 158.900,268.439 160.509,268.851 161.375 C 269.657 163.070,269.852 166.653,269.247 168.640 C 269.052 169.278,268.655 170.610,268.363 171.600 C 267.273 175.298,263.842 180.700,263.475 179.297 C 263.335 178.763,263.282 178.805,263.246 179.476 C 263.131 181.658,264.872 179.857,267.637 174.934 C 269.834 171.023,270.639 163.972,269.231 160.977 C 268.774 160.005,268.400 158.761,268.400 158.213 C 268.400 157.665,268.007 156.019,267.526 154.554 C 266.100 150.209,268.019 147.691,273.052 147.304 C 276.267 147.057,277.159 146.662,280.024 144.217 C 282.741 141.897,284.638 141.769,288.709 143.631 C 291.350 144.839,295.053 144.809,295.816 143.574 C 295.914 143.416,295.321 143.459,294.497 143.671 C 293.674 143.882,292.640 144.144,292.200 144.252 C 291.760 144.360,290.189 143.897,288.709 143.224 C 284.635 141.371,282.738 141.500,280.024 143.817 M297.919 143.885 C 299.299 144.149,301.189 146.332,302.147 148.769 C 302.912 150.713,303.289 151.115,305.800 152.657 C 311.498 156.156,314.400 160.145,314.400 164.479 C 314.400 168.075,316.043 175.690,316.681 175.052 C 316.772 174.961,316.573 174.231,316.238 173.429 C 315.903 172.628,315.436 170.043,315.199 167.686 C 314.308 158.815,313.103 156.822,305.642 151.891 C 303.472 150.457,302.969 149.896,302.332 148.200 C 301.491 145.960,299.126 143.570,297.833 143.654 C 297.079 143.704,297.087 143.726,297.919 143.885 M160.370 153.475 L 159.400 154.550 160.557 153.673 C 161.735 152.779,162.800 153.023,162.800 154.187 C 162.800 154.456,163.160 155.002,163.600 155.400 C 164.437 156.157,164.689 158.174,164.000 158.600 C 163.780 158.736,163.600 159.289,163.600 159.829 C 163.600 160.369,163.438 161.123,163.239 161.505 C 163.040 161.887,162.649 163.010,162.369 164.000 C 162.090 164.990,161.712 165.971,161.530 166.180 C 161.349 166.389,161.200 166.963,161.200 167.456 C 161.200 167.949,161.020 168.464,160.800 168.600 C 160.580 168.736,160.400 169.287,160.400 169.824 C 160.400 170.361,160.253 170.800,160.072 170.800 C 159.892 170.800,159.500 171.700,159.200 172.800 C 158.900 173.900,158.540 174.800,158.400 174.800 C 158.260 174.800,157.900 175.700,157.600 176.800 C 157.300 177.900,156.908 178.800,156.728 178.800 C 156.547 178.800,156.400 179.072,156.400 179.405 C 156.400 179.738,156.192 180.413,155.938 180.905 C 154.967 182.782,154.800 183.207,154.800 183.795 C 154.800 184.128,154.620 184.400,154.400 184.400 C 154.180 184.400,154.000 184.760,154.000 185.200 C 154.000 185.640,153.820 186.000,153.600 186.000 C 153.380 186.000,153.200 186.230,153.200 186.510 C 153.200 186.791,152.666 188.096,152.013 189.410 C 151.359 190.725,150.819 192.115,150.813 192.500 C 150.806 192.885,150.620 193.200,150.400 193.200 C 150.180 193.200,150.000 193.639,150.000 194.176 C 150.000 194.713,149.820 195.264,149.600 195.400 C 149.380 195.536,149.200 196.076,149.200 196.600 C 149.200 197.124,149.020 197.664,148.800 197.800 C 148.580 197.936,148.400 198.566,148.400 199.200 C 148.400 199.834,148.220 200.464,148.000 200.600 C 147.780 200.736,147.600 201.456,147.600 202.200 C 147.600 202.944,147.420 203.664,147.200 203.800 C 146.980 203.936,146.800 204.519,146.800 205.095 C 146.800 205.672,146.585 206.736,146.323 207.462 C 145.683 209.232,146.267 209.678,147.336 208.234 C 149.510 205.298,156.294 198.936,158.200 198.046 C 159.300 197.533,160.513 196.952,160.895 196.756 C 162.922 195.716,165.091 196.921,166.373 199.800 C 166.667 200.460,167.087 201.393,167.307 201.874 C 167.527 202.354,167.619 203.659,167.512 204.774 C 167.287 207.119,167.470 207.194,169.728 205.676 C 170.648 205.058,173.834 203.350,176.808 201.880 C 181.247 199.688,182.645 198.775,184.608 196.787 C 187.020 194.344,188.744 193.200,190.012 193.200 C 190.392 193.200,190.934 192.920,191.218 192.578 C 191.769 191.914,191.639 191.951,188.195 193.430 C 187.532 193.715,185.912 195.042,184.595 196.378 C 182.628 198.375,181.236 199.287,176.800 201.484 C 173.830 202.955,170.729 204.573,169.908 205.079 C 167.953 206.285,168.000 206.312,168.000 203.995 C 168.000 202.892,167.841 201.677,167.647 201.295 C 167.452 200.913,167.056 200.093,166.765 199.474 C 165.019 195.752,163.011 195.259,158.562 197.458 C 155.627 198.908,147.600 206.206,147.600 207.424 C 147.600 207.687,147.330 208.126,147.000 208.400 C 146.510 208.807,146.400 208.783,146.400 208.273 C 146.400 207.929,146.580 207.536,146.800 207.400 C 147.020 207.264,147.200 206.454,147.200 205.600 C 147.200 204.746,147.380 203.936,147.600 203.800 C 147.820 203.664,148.000 203.034,148.000 202.400 C 148.000 201.766,148.180 201.136,148.400 201.000 C 148.620 200.864,148.800 200.234,148.800 199.600 C 148.800 198.966,148.980 198.336,149.200 198.200 C 149.420 198.064,149.600 197.423,149.600 196.776 C 149.600 196.129,149.780 195.600,150.000 195.600 C 150.220 195.600,150.400 195.238,150.400 194.795 C 150.400 194.352,150.559 193.677,150.753 193.295 C 150.948 192.913,151.292 192.150,151.518 191.600 C 151.744 191.050,152.845 188.710,153.966 186.400 C 155.086 184.090,156.002 182.063,156.001 181.896 C 156.001 181.728,156.378 180.738,156.840 179.696 C 157.669 177.825,158.068 176.863,158.746 175.100 C 159.324 173.599,160.073 171.840,160.447 171.105 C 160.641 170.723,160.800 170.136,160.800 169.800 C 160.800 169.207,160.966 168.784,161.938 166.905 C 162.192 166.413,162.400 165.736,162.400 165.400 C 162.400 165.064,162.562 164.477,162.761 164.095 C 162.960 163.713,163.338 162.590,163.603 161.600 C 163.867 160.610,164.245 159.387,164.442 158.881 C 165.040 157.347,164.856 155.817,164.000 155.200 C 163.560 154.883,163.200 154.368,163.200 154.056 C 163.200 153.536,162.116 152.443,161.570 152.413 C 161.443 152.406,160.903 152.884,160.370 153.475 M158.606 155.888 L 157.904 157.000 158.830 156.111 C 159.339 155.622,159.655 155.122,159.532 154.999 C 159.409 154.876,158.992 155.276,158.606 155.888 M110.846 159.476 C 110.821 159.958,110.620 160.464,110.400 160.600 C 110.180 160.736,110.000 161.456,110.000 162.200 C 110.000 162.944,109.820 163.664,109.600 163.800 C 109.380 163.936,109.206 164.352,109.214 164.724 C 109.236 165.771,110.369 163.596,110.386 162.474 C 110.394 161.964,110.591 161.190,110.825 160.753 C 111.059 160.316,111.170 159.653,111.072 159.279 C 110.940 158.780,110.880 158.832,110.846 159.476 M112.623 159.106 C 113.219 159.521,113.951 161.553,114.086 163.169 C 114.153 163.974,114.447 164.605,114.800 164.700 C 115.202 164.808,115.248 164.752,114.940 164.530 C 114.686 164.349,114.479 163.507,114.480 162.660 C 114.480 161.813,114.282 160.922,114.040 160.680 C 113.798 160.438,113.600 159.916,113.600 159.520 C 113.600 159.099,113.310 158.803,112.900 158.806 C 112.484 158.810,112.371 158.931,112.623 159.106 M141.686 161.529 C 141.383 161.726,142.291 161.852,143.886 161.833 C 146.390 161.803,146.610 161.868,146.725 162.681 C 146.794 163.166,147.199 163.673,147.625 163.808 C 148.098 163.958,148.400 164.415,148.400 164.980 C 148.400 166.142,147.575 166.381,142.000 166.837 C 139.690 167.025,136.180 167.362,134.200 167.585 C 132.220 167.808,128.980 168.168,127.000 168.386 C 113.279 169.894,112.400 170.126,112.400 172.238 C 112.400 172.741,112.220 173.264,112.000 173.400 C 111.780 173.536,111.600 174.256,111.600 175.000 C 111.600 175.744,111.420 176.464,111.200 176.600 C 110.980 176.736,110.800 177.546,110.800 178.400 C 110.800 179.254,110.620 180.064,110.400 180.200 C 110.180 180.336,110.000 181.146,110.000 182.000 C 110.000 182.854,109.820 183.664,109.600 183.800 C 109.380 183.936,109.200 184.746,109.200 185.600 C 109.200 186.454,109.020 187.264,108.800 187.400 C 108.580 187.536,108.400 188.346,108.400 189.200 C 108.400 190.054,108.220 190.864,108.000 191.000 C 107.780 191.136,107.600 192.011,107.600 192.944 C 107.600 193.877,107.438 194.811,107.241 195.020 C 106.899 195.382,106.710 196.345,106.187 200.400 C 106.059 201.390,105.795 202.560,105.600 203.000 C 105.405 203.440,105.141 204.610,105.013 205.600 C 104.441 210.037,104.334 210.646,103.998 211.400 C 103.802 211.840,103.538 213.100,103.410 214.200 C 103.283 215.300,103.077 217.100,102.952 218.200 C 102.828 219.300,102.563 220.371,102.363 220.580 C 102.163 220.789,102.000 221.878,102.000 223.000 C 102.000 224.122,101.836 225.211,101.635 225.420 C 101.435 225.629,101.165 226.835,101.035 228.100 C 100.906 229.365,100.691 231.434,100.557 232.698 C 100.421 233.993,99.959 235.521,99.501 236.198 L 98.688 237.400 99.744 236.317 C 100.619 235.421,100.800 234.868,100.800 233.097 C 100.800 231.922,100.964 230.789,101.165 230.580 C 101.365 230.371,101.626 229.210,101.745 228.000 C 101.863 226.790,102.157 224.630,102.398 223.200 C 102.638 221.770,102.934 219.700,103.054 218.600 C 103.175 217.500,103.437 216.429,103.637 216.220 C 103.837 216.011,104.000 214.987,104.000 213.944 C 104.000 212.901,104.180 211.936,104.400 211.800 C 104.620 211.664,104.800 210.674,104.800 209.600 C 104.800 208.526,104.980 207.536,105.200 207.400 C 105.420 207.264,105.600 206.274,105.600 205.200 C 105.600 204.126,105.780 203.136,106.000 203.000 C 106.220 202.864,106.400 201.964,106.400 201.000 C 106.400 200.036,106.580 199.136,106.800 199.000 C 107.020 198.864,107.200 197.964,107.200 197.000 C 107.200 196.036,107.380 195.136,107.600 195.000 C 107.820 194.864,108.000 194.054,108.000 193.200 C 108.000 192.346,108.180 191.536,108.400 191.400 C 108.620 191.264,108.800 190.364,108.800 189.400 C 108.800 188.436,108.980 187.536,109.200 187.400 C 109.420 187.264,109.600 186.454,109.600 185.600 C 109.600 184.746,109.780 183.936,110.000 183.800 C 110.220 183.664,110.400 182.854,110.400 182.000 C 110.400 181.146,110.580 180.336,110.800 180.200 C 111.020 180.064,111.200 179.344,111.200 178.600 C 111.200 177.856,111.380 177.136,111.600 177.000 C 111.820 176.864,112.000 176.054,112.000 175.200 C 112.000 174.346,112.180 173.536,112.400 173.400 C 112.620 173.264,112.800 172.735,112.800 172.225 C 112.800 170.458,113.185 170.367,127.300 168.791 C 136.230 167.794,138.454 167.580,142.000 167.380 C 144.090 167.262,146.160 167.009,146.600 166.819 C 147.040 166.628,147.715 166.372,148.100 166.249 C 149.059 165.942,149.010 164.141,148.028 163.615 C 147.603 163.388,147.198 162.796,147.128 162.301 C 146.991 161.336,142.874 160.753,141.686 161.529 M260.440 162.225 C 260.462 162.651,260.624 163.450,260.800 164.000 L 261.120 165.000 261.172 164.000 C 261.245 162.600,261.851 163.686,262.813 166.942 C 263.212 168.294,263.553 169.115,263.569 168.766 C 263.625 167.619,261.969 163.134,261.177 162.283 C 260.431 161.482,260.402 161.480,260.440 162.225 M133.600 162.400 C 132.813 162.909,134.216 162.909,135.400 162.400 C 136.133 162.085,136.116 162.054,135.200 162.034 C 134.650 162.022,133.930 162.187,133.600 162.400 M126.200 163.200 C 125.885 163.709,126.812 163.709,127.600 163.200 C 128.088 162.885,128.036 162.811,127.324 162.806 C 126.842 162.803,126.336 162.980,126.200 163.200 M118.400 164.000 C 117.605 164.514,118.604 164.514,119.800 164.000 L 120.600 163.656 119.800 163.634 C 119.360 163.622,118.730 163.787,118.400 164.000 M261.524 168.767 C 261.725 172.971,260.611 177.531,258.182 182.449 C 255.131 188.623,254.141 192.682,254.778 196.400 L 255.156 198.600 255.046 196.011 C 254.875 191.984,255.786 188.446,258.409 182.947 C 261.500 176.468,263.108 167.964,261.671 165.701 C 261.496 165.426,261.430 166.806,261.524 168.767 M104.800 166.400 C 104.267 166.745,104.267 166.788,104.800 166.788 C 105.130 166.788,105.670 166.613,106.000 166.400 C 106.533 166.055,106.533 166.012,106.000 166.012 C 105.670 166.012,105.130 166.187,104.800 166.400 M100.800 167.200 C 100.267 167.545,100.267 167.588,100.800 167.588 C 101.130 167.588,101.670 167.413,102.000 167.200 C 102.533 166.855,102.533 166.812,102.000 166.812 C 101.670 166.812,101.130 166.987,100.800 167.200 M263.600 174.000 C 263.600 176.273,263.692 178.041,263.804 177.929 C 264.091 177.643,264.117 170.384,263.833 170.100 C 263.705 169.972,263.600 171.727,263.600 174.000 M82.400 171.200 C 81.867 171.545,81.867 171.588,82.400 171.588 C 82.730 171.588,83.270 171.413,83.600 171.200 C 84.133 170.855,84.133 170.812,83.600 170.812 C 83.270 170.812,82.730 170.987,82.400 171.200 M105.400 171.524 C 104.300 171.592,103.229 171.817,103.020 172.024 C 102.811 172.231,102.057 172.400,101.344 172.400 C 100.631 172.400,99.936 172.580,99.800 172.800 C 99.664 173.020,98.674 173.200,97.600 173.200 C 96.526 173.200,95.536 173.380,95.400 173.600 C 95.264 173.820,94.454 174.000,93.600 174.000 C 92.746 174.000,91.936 174.180,91.800 174.400 C 91.664 174.620,90.854 174.800,90.000 174.800 C 89.146 174.800,88.336 174.980,88.200 175.200 C 88.064 175.420,87.254 175.600,86.400 175.600 C 85.546 175.600,84.736 175.780,84.600 176.000 C 84.464 176.220,83.654 176.400,82.800 176.400 C 81.946 176.400,81.136 176.580,81.000 176.800 C 80.359 177.837,76.696 177.256,76.907 176.151 C 77.059 175.358,76.924 175.053,76.354 174.904 C 75.425 174.661,75.395 174.090,76.262 173.131 C 76.626 172.729,76.813 172.400,76.678 172.400 C 75.505 172.400,74.542 174.664,75.575 174.992 C 76.039 175.139,76.401 175.673,76.475 176.319 C 76.617 177.552,79.020 177.748,82.900 176.843 C 86.975 175.893,88.657 175.540,90.103 175.332 C 90.929 175.213,91.705 174.955,91.826 174.758 C 91.948 174.561,92.836 174.400,93.800 174.400 C 94.764 174.400,95.664 174.220,95.800 174.000 C 95.936 173.780,96.836 173.600,97.800 173.600 C 98.764 173.600,99.652 173.439,99.774 173.242 C 100.001 172.875,101.796 172.531,105.500 172.145 C 107.564 171.930,108.598 172.936,107.200 173.800 C 106.980 173.936,106.800 174.656,106.800 175.400 C 106.800 176.144,106.620 176.864,106.400 177.000 C 106.180 177.136,106.000 177.957,106.000 178.824 C 106.000 179.691,105.820 180.400,105.600 180.400 C 105.380 180.400,105.200 181.109,105.200 181.976 C 105.200 182.843,105.020 183.664,104.800 183.800 C 104.580 183.936,104.400 184.746,104.400 185.600 C 104.400 186.454,104.220 187.264,104.000 187.400 C 103.780 187.536,103.600 188.346,103.600 189.200 C 103.600 190.054,103.420 190.864,103.200 191.000 C 102.980 191.136,102.800 192.036,102.800 193.000 C 102.800 193.964,102.620 194.864,102.400 195.000 C 102.180 195.136,102.000 196.036,102.000 197.000 C 102.000 197.964,101.820 198.864,101.600 199.000 C 101.380 199.136,101.200 200.036,101.200 201.000 C 101.200 201.964,101.020 202.864,100.800 203.000 C 100.580 203.136,100.400 204.126,100.400 205.200 C 100.400 206.274,100.220 207.264,100.000 207.400 C 99.780 207.536,99.600 208.616,99.600 209.800 C 99.600 210.984,99.420 212.064,99.200 212.200 C 98.980 212.336,98.800 213.326,98.800 214.400 C 98.800 215.474,98.620 216.464,98.400 216.600 C 98.180 216.736,98.000 217.816,98.000 219.000 C 98.000 220.184,97.820 221.264,97.600 221.400 C 97.380 221.536,97.200 222.616,97.200 223.800 C 97.200 224.984,97.020 226.064,96.800 226.200 C 96.580 226.336,96.400 227.481,96.400 228.744 C 96.400 230.007,96.207 231.233,95.971 231.469 C 95.360 232.080,95.680 234.502,96.400 234.719 C 96.884 234.865,96.904 234.798,96.500 234.370 C 95.902 233.737,95.835 231.749,96.400 231.400 C 96.620 231.264,96.800 230.184,96.800 229.000 C 96.800 227.816,96.980 226.736,97.200 226.600 C 97.420 226.464,97.600 225.384,97.600 224.200 C 97.600 223.016,97.780 221.936,98.000 221.800 C 98.220 221.664,98.400 220.584,98.400 219.400 C 98.400 218.216,98.580 217.136,98.800 217.000 C 99.020 216.864,99.200 215.784,99.200 214.600 C 99.200 213.416,99.380 212.336,99.600 212.200 C 99.820 212.064,100.000 211.074,100.000 210.000 C 100.000 208.926,100.180 207.936,100.400 207.800 C 100.620 207.664,100.800 206.699,100.800 205.656 C 100.800 204.613,100.963 203.589,101.161 203.380 C 101.360 203.171,101.619 202.190,101.738 201.200 C 101.856 200.210,102.153 198.410,102.397 197.200 C 102.641 195.990,102.940 194.280,103.061 193.400 C 103.183 192.520,103.444 191.629,103.641 191.420 C 103.838 191.211,104.000 190.392,104.000 189.600 C 104.000 188.808,104.162 187.989,104.359 187.780 C 104.556 187.571,104.826 186.635,104.959 185.700 C 105.554 181.501,105.706 180.782,106.042 180.574 C 106.239 180.452,106.400 179.654,106.400 178.800 C 106.400 177.946,106.580 177.136,106.800 177.000 C 107.020 176.864,107.200 176.144,107.200 175.400 C 107.200 174.656,107.380 173.936,107.600 173.800 C 109.265 172.771,107.909 171.368,105.400 171.524 M316.114 177.710 C 315.885 178.213,314.886 179.041,313.895 179.551 C 311.668 180.696,310.992 181.802,311.578 183.341 C 312.153 184.854,312.121 185.079,311.200 186.000 C 310.760 186.440,310.558 186.800,310.751 186.800 C 311.601 186.800,312.200 185.331,312.200 183.248 C 312.200 181.048,312.215 181.020,313.916 180.075 C 315.530 179.179,317.139 177.405,316.719 176.986 C 316.615 176.882,316.343 177.208,316.114 177.710 M148.667 181.067 C 148.520 181.213,148.400 181.743,148.400 182.243 C 148.400 182.743,148.220 183.264,148.000 183.400 C 147.780 183.536,147.600 184.076,147.600 184.600 C 147.600 185.124,147.420 185.664,147.200 185.800 C 146.980 185.936,146.811 186.532,146.825 187.124 C 146.843 187.929,147.005 187.697,147.467 186.200 C 147.806 185.100,148.230 183.840,148.409 183.400 C 148.770 182.509,149.178 180.800,149.029 180.800 C 148.976 180.800,148.813 180.920,148.667 181.067 M239.628 183.300 C 239.644 183.575,239.811 184.160,240.000 184.600 L 240.344 185.400 240.385 184.600 C 240.483 182.708,244.749 189.695,246.285 194.263 C 246.836 195.903,247.376 197.158,247.483 197.050 C 247.879 196.654,245.586 191.085,243.769 188.030 C 241.234 183.769,239.546 181.841,239.628 183.300 M215.085 186.237 C 211.239 188.322,208.000 193.595,208.000 197.772 L 208.000 200.321 201.700 206.077 C 195.643 211.612,192.135 214.400,191.228 214.400 C 190.993 214.400,190.800 214.536,190.800 214.702 C 190.800 214.869,190.215 215.244,189.500 215.536 C 188.785 215.828,187.840 216.221,187.400 216.410 C 184.467 217.669,182.530 217.299,182.176 215.412 C 181.811 213.466,182.269 212.465,183.725 212.022 L 185.000 211.635 183.820 211.718 C 182.269 211.826,180.808 214.080,181.534 215.244 C 181.791 215.654,182.000 216.240,182.000 216.546 C 182.000 217.361,184.313 218.247,184.902 217.658 C 185.154 217.406,185.727 217.200,186.176 217.200 C 187.171 217.200,192.543 214.591,193.215 213.782 C 193.481 213.462,193.872 213.200,194.085 213.200 C 194.560 213.200,199.734 208.631,204.700 203.826 L 208.400 200.246 208.400 197.718 C 208.400 196.327,208.565 194.877,208.766 194.495 C 208.968 194.113,209.407 193.170,209.743 192.400 C 210.358 190.990,213.834 187.423,215.495 186.498 C 216.811 185.765,219.589 185.876,220.569 186.700 C 221.399 187.399,221.399 187.399,220.638 186.500 C 219.720 185.416,216.850 185.280,215.085 186.237 M305.772 187.700 C 308.559 197.158,308.920 203.008,307.047 208.400 C 306.474 210.050,306.004 211.543,306.003 211.718 C 305.998 212.221,308.755 211.573,311.597 210.404 C 313.029 209.815,314.740 209.191,315.400 209.017 C 316.060 208.843,316.378 208.619,316.106 208.519 C 315.834 208.419,314.214 208.875,312.506 209.533 C 307.919 211.300,306.173 211.572,306.787 210.424 C 308.498 207.228,309.173 198.598,308.057 194.200 C 307.001 190.037,306.707 188.975,306.376 188.120 C 306.056 187.292,306.158 187.232,308.118 187.094 L 310.200 186.948 307.853 186.874 C 305.594 186.803,305.517 186.833,305.772 187.700 M221.599 188.647 C 222.345 189.845,221.852 190.800,220.488 190.800 C 218.453 190.800,214.000 193.380,214.000 194.559 C 214.000 194.789,214.268 194.595,214.596 194.127 C 215.349 193.052,219.021 191.200,220.399 191.200 C 222.267 191.200,223.082 189.462,221.736 188.349 C 221.132 187.850,221.120 187.877,221.599 188.647 M146.267 188.667 C 146.120 188.813,146.015 189.398,146.034 189.967 C 146.068 190.981,146.075 190.979,146.421 189.820 C 146.785 188.603,146.731 188.202,146.267 188.667 M145.467 191.467 C 145.320 191.613,145.200 192.143,145.200 192.643 C 145.200 193.143,145.020 193.664,144.800 193.800 C 144.580 193.936,144.415 194.532,144.434 195.124 L 144.469 196.200 144.863 195.000 C 145.373 193.450,145.942 191.200,145.825 191.200 C 145.774 191.200,145.613 191.320,145.467 191.467 M192.126 192.660 C 192.269 192.802,192.790 193.121,193.285 193.367 C 193.780 193.614,194.384 194.216,194.628 194.705 C 194.871 195.194,195.370 195.925,195.736 196.329 C 198.251 199.108,191.968 208.607,186.152 210.818 C 185.567 211.041,185.196 211.329,185.326 211.460 C 186.585 212.718,196.000 203.505,196.000 201.016 C 196.000 200.703,196.180 200.336,196.400 200.200 C 197.134 199.746,196.857 196.976,196.000 196.200 C 195.560 195.802,195.200 195.268,195.200 195.013 C 195.200 194.381,193.086 192.400,192.411 192.400 C 192.112 192.400,191.983 192.517,192.126 192.660 M243.044 193.400 C 243.373 194.871,243.602 195.190,243.594 194.167 C 243.591 193.745,243.405 193.130,243.182 192.800 C 242.885 192.362,242.848 192.524,243.044 193.400 M213.005 196.649 C 212.365 198.181,212.193 202.254,212.732 203.104 C 212.908 203.380,212.974 202.537,212.880 201.229 C 212.769 199.704,212.931 198.196,213.329 197.025 C 214.071 194.848,213.860 194.602,213.005 196.649 M243.883 200.600 C 244.003 203.460,244.169 205.875,244.251 205.967 C 244.543 206.293,244.335 198.969,244.002 197.200 C 243.783 196.037,243.741 197.240,243.883 200.600 M125.200 196.328 C 123.460 197.116,121.200 198.914,121.200 199.509 C 121.200 199.711,120.875 200.170,120.478 200.529 C 120.081 200.889,119.507 201.817,119.203 202.591 C 118.899 203.366,118.504 204.000,118.325 204.000 C 118.146 204.000,118.000 204.349,118.000 204.776 C 118.000 205.203,117.820 205.664,117.600 205.800 C 117.380 205.936,117.200 206.451,117.200 206.944 C 117.200 207.437,117.002 208.038,116.759 208.281 C 115.669 209.371,116.303 216.708,117.599 218.000 C 117.710 218.110,118.098 218.740,118.461 219.400 C 119.085 220.531,121.845 222.289,122.293 221.840 C 122.407 221.727,121.783 221.347,120.906 220.996 C 119.973 220.622,119.088 219.911,118.771 219.279 C 118.473 218.686,117.888 217.695,117.471 217.077 C 116.605 215.794,116.373 209.067,117.168 208.272 C 117.406 208.034,117.600 207.563,117.600 207.224 C 117.600 205.939,120.546 200.717,122.209 199.054 C 125.070 196.194,127.600 195.779,127.600 198.171 C 127.600 198.517,127.780 198.800,128.000 198.800 C 128.220 198.800,128.400 199.340,128.400 200.000 C 128.400 200.933,128.222 201.200,127.600 201.200 C 127.160 201.200,126.800 201.374,126.800 201.587 C 126.800 201.820,127.159 201.842,127.700 201.644 C 129.229 201.082,129.027 198.841,127.255 196.700 C 126.646 195.963,126.188 195.881,125.200 196.328 M143.867 196.667 C 143.720 196.813,143.600 197.443,143.600 198.067 C 143.600 198.936,143.412 199.200,142.795 199.200 C 142.352 199.200,141.677 199.366,141.295 199.568 C 140.590 199.942,137.457 201.083,134.666 201.982 C 133.750 202.277,131.652 202.424,129.466 202.346 C 125.797 202.215,124.772 202.431,124.832 203.324 C 124.854 203.667,124.919 203.661,125.065 203.300 C 125.210 202.941,126.550 202.800,129.810 202.800 C 132.407 202.800,134.459 202.629,134.600 202.400 C 134.736 202.180,135.289 202.000,135.829 202.000 C 136.369 202.000,137.123 201.841,137.505 201.647 C 137.887 201.452,138.695 201.092,139.300 200.847 C 139.905 200.601,140.805 200.229,141.300 200.021 C 141.795 199.812,142.553 199.586,142.984 199.518 C 143.519 199.434,143.859 198.951,144.053 198.000 C 144.353 196.537,144.309 196.224,143.867 196.667 M247.629 198.029 C 247.592 198.838,248.834 202.499,249.066 202.267 C 249.164 202.170,248.886 201.035,248.450 199.745 C 248.014 198.455,247.644 197.683,247.629 198.029 M190.733 198.300 C 190.660 198.465,190.060 198.896,189.400 199.259 C 188.740 199.621,187.603 200.701,186.874 201.659 C 186.145 202.616,185.290 203.717,184.974 204.105 C 184.248 204.996,184.252 205.200,184.999 205.200 C 185.889 205.200,191.600 199.619,191.600 198.749 C 191.600 198.017,190.998 197.705,190.733 198.300 M254.493 200.000 C 254.493 200.770,254.575 201.085,254.676 200.700 C 254.776 200.315,254.776 199.685,254.676 199.300 C 254.575 198.915,254.493 199.230,254.493 200.000 M190.800 199.539 C 190.800 200.044,185.998 204.531,185.737 204.270 C 185.310 203.843,187.515 201.041,189.189 199.884 C 190.277 199.132,190.800 199.020,190.800 199.539 M231.780 200.788 C 230.471 201.662,228.230 203.205,226.800 204.217 C 225.370 205.230,223.570 206.492,222.800 207.021 C 222.030 207.551,220.004 208.978,218.297 210.192 C 214.498 212.895,214.476 212.895,214.295 210.300 L 214.148 208.200 214.074 210.700 C 213.986 213.682,214.084 213.707,217.240 211.500 C 218.577 210.565,219.970 209.620,220.336 209.400 C 220.701 209.180,221.090 208.895,221.200 208.766 C 221.416 208.513,227.246 204.456,228.336 203.800 C 228.701 203.580,229.090 203.296,229.200 203.170 C 230.634 201.520,234.344 199.709,235.027 200.326 C 235.751 200.980,235.751 200.973,235.025 200.100 C 234.119 199.011,234.592 198.911,231.780 200.788 M236.172 202.311 L 236.944 203.223 235.189 205.011 C 234.223 205.995,233.274 206.800,233.080 206.800 C 232.722 206.800,231.463 207.702,229.032 209.700 C 228.297 210.305,227.538 210.807,227.347 210.816 C 226.894 210.837,224.129 213.200,224.557 213.200 C 224.737 213.200,225.394 212.795,226.017 212.300 C 226.640 211.805,227.633 211.040,228.224 210.600 C 229.299 209.799,229.717 209.510,232.636 207.549 C 236.556 204.916,237.651 203.306,236.300 202.162 L 235.400 201.400 236.172 202.311 M254.828 202.833 C 254.844 203.585,255.020 204.560,255.220 205.000 C 255.465 205.539,255.505 205.146,255.341 203.800 C 255.051 201.419,254.789 200.924,254.828 202.833 M161.200 202.400 C 161.200 202.620,160.840 202.800,160.400 202.800 C 159.960 202.800,159.600 202.941,159.600 203.114 C 159.600 203.286,159.045 203.756,158.366 204.156 C 157.045 204.937,152.800 209.022,152.800 209.513 C 152.800 209.675,152.395 210.264,151.900 210.820 C 150.839 212.013,149.641 213.914,149.329 214.900 C 149.207 215.285,148.948 215.600,148.753 215.600 C 148.559 215.600,148.400 215.960,148.400 216.400 C 148.400 216.840,148.220 217.200,148.000 217.200 C 147.780 217.200,147.600 217.472,147.600 217.805 C 147.600 218.393,147.433 218.818,146.462 220.695 C 146.208 221.187,146.000 221.862,146.000 222.195 C 146.000 222.528,145.820 222.800,145.600 222.800 C 145.380 222.800,145.200 223.239,145.200 223.776 C 145.200 224.313,145.020 224.864,144.800 225.000 C 144.580 225.136,144.400 225.676,144.400 226.200 C 144.400 226.724,144.220 227.264,144.000 227.400 C 143.780 227.536,143.600 228.076,143.600 228.600 C 143.600 229.124,143.420 229.664,143.200 229.800 C 142.980 229.936,142.800 230.465,142.800 230.975 C 142.800 231.485,142.526 232.130,142.190 232.408 C 141.855 232.686,141.666 233.000,141.771 233.105 C 142.172 233.505,143.200 232.011,143.200 231.029 C 143.200 230.463,143.380 230.000,143.600 230.000 C 143.820 230.000,144.000 229.460,144.000 228.800 C 144.000 228.140,144.180 227.600,144.400 227.600 C 144.620 227.600,144.800 227.060,144.800 226.400 C 144.800 225.740,144.980 225.200,145.200 225.200 C 145.420 225.200,145.600 224.838,145.600 224.395 C 145.600 223.952,145.759 223.277,145.953 222.895 C 146.148 222.513,146.486 221.750,146.705 221.200 C 147.721 218.653,150.551 213.200,150.858 213.200 C 151.046 213.200,151.203 212.975,151.207 212.700 C 151.223 211.633,155.591 206.720,158.200 204.834 C 161.337 202.566,162.374 202.114,162.820 202.818 C 163.125 203.301,163.189 203.281,163.194 202.700 C 163.198 202.218,162.888 202.000,162.200 202.000 C 161.650 202.000,161.200 202.180,161.200 202.400 M249.200 203.020 C 249.200 204.391,252.268 208.331,254.378 209.671 C 257.095 211.396,258.120 211.205,257.059 209.173 C 256.765 208.609,256.384 207.619,256.212 206.973 C 256.041 206.328,255.824 206.008,255.730 206.263 C 255.635 206.517,255.838 207.394,256.179 208.212 C 256.988 210.147,256.964 210.368,255.974 210.109 C 254.585 209.746,250.926 206.098,250.246 204.399 C 249.685 202.996,249.200 202.357,249.200 203.020 M213.200 205.710 C 213.200 206.723,213.358 207.650,213.550 207.769 C 213.872 207.968,213.679 204.410,213.347 204.033 C 213.266 203.942,213.200 204.696,213.200 205.710 M123.300 204.998 C 123.025 205.311,122.800 205.844,122.800 206.183 C 122.800 206.522,122.659 206.800,122.487 206.800 C 122.315 206.800,121.943 207.655,121.661 208.700 C 121.378 209.745,120.979 210.913,120.773 211.295 C 120.568 211.677,120.400 212.982,120.400 214.195 L 120.400 216.400 122.351 216.400 C 124.523 216.400,124.820 216.166,126.263 213.315 C 127.441 210.988,127.441 209.812,126.263 207.485 C 124.707 204.411,124.195 203.982,123.300 204.998 M125.765 207.281 C 127.034 209.828,127.061 211.020,125.900 213.262 C 124.631 215.713,124.267 216.000,122.429 216.000 L 120.800 216.000 120.800 213.800 C 120.800 212.590,120.980 211.600,121.200 211.600 C 121.420 211.600,121.600 211.148,121.600 210.595 C 121.600 210.042,121.759 209.277,121.953 208.895 C 122.148 208.513,122.545 207.660,122.837 207.000 C 124.034 204.290,124.287 204.314,125.765 207.281 M141.462 205.471 C 140.885 206.048,135.725 207.580,134.324 207.590 C 133.512 207.595,132.743 207.769,132.615 207.976 C 132.477 208.198,133.001 208.271,133.891 208.153 C 136.083 207.864,142.000 205.966,142.000 205.553 C 142.000 205.130,141.829 205.104,141.462 205.471 M142.000 207.176 C 142.000 207.603,141.820 208.064,141.600 208.200 C 141.380 208.336,141.200 209.391,141.200 210.544 C 141.200 211.697,141.036 212.811,140.835 213.020 C 140.635 213.229,140.371 214.390,140.249 215.600 C 140.127 216.810,139.831 219.150,139.591 220.800 C 138.506 228.262,138.759 231.986,140.421 233.013 C 140.640 233.148,140.438 232.580,139.972 231.750 C 138.765 229.601,138.949 227.198,141.570 210.900 C 141.773 209.635,142.064 208.105,142.217 207.500 C 142.369 206.895,142.382 206.400,142.247 206.400 C 142.111 206.400,142.000 206.749,142.000 207.176 M205.101 210.416 C 200.916 214.398,199.123 215.904,196.334 217.781 C 195.527 218.324,194.730 218.990,194.561 219.262 C 194.247 219.770,195.775 218.771,198.600 216.620 C 199.480 215.950,202.205 213.557,204.656 211.301 C 207.107 209.046,209.222 207.200,209.356 207.200 C 209.490 207.200,209.600 209.301,209.600 211.868 L 209.600 216.536 206.406 219.666 C 200.085 225.861,198.735 229.486,201.143 233.800 C 202.320 235.910,203.547 236.805,205.200 236.762 C 205.871 236.744,205.612 236.581,204.415 236.268 C 201.111 235.402,199.371 230.276,201.240 226.912 C 202.629 224.412,205.133 221.357,207.631 219.116 L 209.990 217.000 209.995 211.924 C 209.998 209.132,209.843 206.750,209.652 206.632 C 209.460 206.513,207.412 208.216,205.101 210.416 M244.426 206.889 C 244.161 213.780,257.443 222.280,264.366 219.650 C 266.435 218.864,267.325 219.106,266.931 220.349 C 266.753 220.912,266.783 220.919,267.156 220.400 C 268.216 218.926,266.703 218.147,264.538 219.052 C 258.514 221.569,247.969 215.828,245.326 208.592 C 244.846 207.276,244.441 206.510,244.426 206.889 M322.907 206.687 C 323.516 206.779,323.910 207.022,323.783 207.227 C 323.516 207.660,324.375 207.695,326.531 207.338 C 328.839 206.957,327.484 206.402,324.400 206.466 C 322.970 206.496,322.298 206.595,322.907 206.687 M319.000 207.200 L 318.200 207.544 319.000 207.544 C 319.440 207.544,320.160 207.389,320.600 207.200 L 321.400 206.856 320.600 206.856 C 320.160 206.856,319.440 207.011,319.000 207.200 M321.200 208.000 C 320.667 208.345,320.667 208.388,321.200 208.388 C 321.530 208.388,322.070 208.213,322.400 208.000 C 322.933 207.655,322.933 207.612,322.400 207.612 C 322.070 207.612,321.530 207.787,321.200 208.000 M130.800 211.788 C 130.800 214.460,130.627 215.484,129.982 216.633 C 129.532 217.434,129.222 218.266,129.294 218.482 C 129.366 218.698,129.665 218.363,129.959 217.737 C 130.253 217.112,130.652 216.287,130.847 215.905 C 131.041 215.523,131.200 213.783,131.200 212.039 C 131.200 209.875,131.359 208.803,131.700 208.665 C 131.999 208.544,131.918 208.450,131.500 208.432 C 130.886 208.404,130.800 208.816,130.800 211.788 M174.980 208.746 C 174.771 208.937,173.520 209.671,172.200 210.379 C 170.035 211.540,168.324 212.748,169.409 212.350 C 170.222 212.052,176.000 208.740,176.000 208.572 C 176.000 208.277,175.378 208.383,174.980 208.746 M318.282 209.190 C 317.447 209.607,314.657 211.368,312.082 213.103 C 309.507 214.838,305.974 216.847,304.231 217.569 C 302.488 218.290,300.868 219.095,300.631 219.358 C 298.651 221.552,298.324 222.096,299.805 220.730 C 300.682 219.922,302.660 218.765,304.200 218.159 C 307.475 216.872,307.791 216.688,312.844 213.119 C 314.958 211.626,317.523 210.035,318.544 209.584 C 319.565 209.132,320.400 208.681,320.400 208.581 C 320.400 208.254,319.823 208.420,318.282 209.190 M161.258 209.645 C 160.921 210.529,159.878 211.548,154.353 216.400 C 153.226 217.390,151.772 219.010,151.122 220.000 C 150.448 221.027,150.340 221.307,150.871 220.651 C 152.174 219.039,155.464 215.791,158.400 213.217 C 160.989 210.948,162.282 209.349,161.865 208.932 C 161.732 208.798,161.458 209.119,161.258 209.645 M167.579 213.026 C 166.164 213.777,163.910 216.308,163.075 218.084 C 162.264 219.809,160.103 222.722,157.953 224.989 C 157.124 225.863,156.540 226.673,156.655 226.788 C 156.770 226.903,157.495 226.278,158.266 225.399 C 159.038 224.519,160.114 223.291,160.657 222.668 C 161.201 222.046,161.845 221.101,162.087 220.568 C 162.330 220.036,162.680 219.600,162.864 219.600 C 163.049 219.600,163.200 219.240,163.200 218.800 C 163.200 218.360,163.380 218.000,163.600 218.000 C 163.820 218.000,164.000 217.752,164.000 217.448 C 164.000 216.709,166.908 213.747,167.962 213.412 C 168.423 213.266,168.800 212.978,168.800 212.773 C 168.800 212.568,168.755 212.419,168.700 212.442 C 168.645 212.466,168.141 212.729,167.579 213.026 M223.000 214.000 C 222.602 214.440,222.079 214.807,221.838 214.816 C 221.332 214.835,218.468 217.200,218.952 217.200 C 219.479 217.200,224.458 213.236,223.962 213.212 C 223.831 213.205,223.398 213.560,223.000 214.000 M217.400 218.000 C 217.002 218.440,216.511 218.800,216.309 218.800 C 215.276 218.800,214.000 221.216,214.000 223.171 C 214.000 224.041,213.820 224.864,213.600 225.000 C 213.380 225.136,213.208 225.732,213.218 226.324 C 213.242 227.832,214.385 224.674,214.394 223.074 C 214.402 221.508,215.028 220.441,216.948 218.717 C 217.857 217.901,218.493 217.226,218.362 217.217 C 218.231 217.208,217.798 217.560,217.400 218.000 M179.600 219.930 C 179.600 220.112,180.079 220.697,180.663 221.230 L 181.727 222.200 180.788 220.900 C 179.812 219.548,179.600 219.375,179.600 219.930 M192.493 220.180 C 191.326 220.824,190.956 221.200,191.489 221.200 C 191.721 221.200,192.336 220.846,192.856 220.413 C 193.926 219.522,193.814 219.450,192.493 220.180 M149.467 222.267 C 148.694 223.039,149.615 227.588,150.546 227.597 C 150.736 227.599,150.581 227.125,150.200 226.544 C 149.708 225.793,149.565 224.986,149.705 223.744 C 149.911 221.917,149.898 221.835,149.467 222.267 M271.259 223.700 C 269.613 227.454,269.581 227.581,270.100 228.411 C 270.371 228.845,270.830 229.200,271.120 229.200 C 271.410 229.200,271.536 229.380,271.400 229.600 C 271.264 229.820,270.713 230.000,270.176 230.000 C 266.788 230.000,257.994 245.396,260.700 246.592 C 262.030 247.180,261.808 247.478,259.819 247.776 C 257.492 248.125,254.736 250.573,252.645 254.150 L 251.095 256.800 248.747 256.800 C 247.453 256.800,246.400 256.621,246.400 256.401 C 246.400 256.048,249.022 252.116,249.601 251.600 C 250.011 251.235,255.481 243.037,256.808 240.800 C 259.800 235.754,266.105 223.572,265.855 223.321 C 265.768 223.235,264.302 225.907,262.596 229.260 C 257.547 239.181,254.859 243.571,247.724 253.550 C 245.218 257.054,245.259 257.200,248.760 257.200 L 251.473 257.200 252.611 255.100 C 254.620 251.394,257.987 248.400,260.144 248.400 C 262.389 248.400,262.875 247.744,261.465 246.619 C 260.076 245.512,260.117 245.004,261.860 241.737 C 266.661 232.736,267.670 231.461,270.725 230.538 C 273.669 229.649,273.969 229.358,272.268 229.039 C 270.491 228.706,269.784 225.875,271.252 224.968 C 271.443 224.850,271.600 224.425,271.600 224.025 C 271.600 221.576,274.738 222.598,276.051 225.475 C 277.470 228.581,280.541 231.112,285.000 232.850 C 287.345 233.764,289.702 233.996,296.689 233.998 C 306.636 234.001,308.847 234.844,312.195 239.916 C 314.456 243.342,314.453 240.030,312.191 235.600 C 310.604 232.494,307.022 229.916,304.450 230.029 C 304.092 230.044,304.880 230.415,306.200 230.853 C 309.575 231.972,312.800 235.797,312.800 238.681 C 312.800 239.608,312.660 239.531,311.009 237.694 C 307.671 233.982,305.976 233.477,296.600 233.406 C 291.789 233.369,287.938 233.154,286.938 232.867 C 281.283 231.243,277.493 228.210,276.256 224.318 C 276.049 223.667,273.288 222.000,272.418 222.000 C 272.190 222.000,271.669 222.765,271.259 223.700 M297.244 222.546 C 296.986 222.858,295.838 223.515,294.694 224.008 L 292.613 224.903 294.258 226.363 C 296.502 228.354,299.995 230.007,301.875 229.968 C 303.220 229.940,303.108 229.873,300.922 229.398 C 298.338 228.836,293.369 225.897,293.807 225.189 C 293.932 224.987,294.611 224.541,295.317 224.197 C 297.000 223.379,298.195 222.462,297.928 222.194 C 297.810 222.077,297.503 222.235,297.244 222.546 M207.188 226.846 C 206.865 227.312,206.285 228.105,205.900 228.609 C 205.515 229.114,205.200 229.813,205.200 230.163 C 205.200 230.513,205.020 230.800,204.800 230.800 C 204.580 230.800,204.400 230.982,204.400 231.203 C 204.400 231.442,204.729 231.401,205.205 231.104 C 205.647 230.828,205.919 230.367,205.809 230.080 C 205.696 229.784,205.792 229.671,206.032 229.819 C 206.264 229.963,206.553 229.702,206.674 229.240 C 206.794 228.778,207.052 228.400,207.247 228.400 C 207.441 228.400,207.600 228.040,207.600 227.600 C 207.600 227.160,207.780 226.800,208.000 226.800 C 208.220 226.800,208.400 226.620,208.400 226.400 C 208.400 225.733,207.811 225.950,207.188 226.846 M154.856 227.634 C 154.336 228.055,154.066 228.394,154.256 228.387 C 154.744 228.369,156.176 227.243,155.971 227.039 C 155.877 226.945,155.375 227.213,154.856 227.634 M212.572 228.243 C 211.854 230.450,210.452 232.813,208.825 234.560 C 207.821 235.638,207.375 236.268,207.832 235.960 C 209.801 234.636,213.743 228.410,213.051 227.718 C 212.923 227.590,212.708 227.826,212.572 228.243 M97.293 236.000 C 97.293 236.770,97.375 237.085,97.476 236.700 C 97.576 236.315,97.576 235.685,97.476 235.300 C 97.375 234.915,97.293 235.230,97.293 236.000 " stroke="none" fill="#99a097" fill-rule="evenodd"></path></g></svg>